  0
SECTION
  2
HEADER
  9
$ACADVER
  1
AC1021
  9
$ACADMAINTVER
 70
    25
  9
$DWGCODEPAGE
  3
ANSI_1252
  9
$INSBASE
 10
0.0
 20
0.0
 30
0.0
  9
$EXTMIN
 10
0.0
 20
0.0
 30
0.0
  9
$EXTMAX
 10
744.5
 20
518.0
 30
2.0
  9
$LIMMIN
 10
0.0
 20
0.0
  9
$LIMMAX
 10
420.0
 20
297.0
  9
$ORTHOMODE
 70
     0
  9
$REGENMODE
 70
     1
  9
$FILLMODE
 70
     1
  9
$QTEXTMODE
 70
     0
  9
$MIRRTEXT
 70
     1
  9
$LTSCALE
 40
1.0
  9
$ATTMODE
 70
     1
  9
$TEXTSIZE
 40
2.5
  9
$TRACEWID
 40
1.0
  9
$TEXTSTYLE
  7
Standard
  9
$CLAYER
  8
0
  9
$CELTYPE
  6
ByLayer
  9
$CECOLOR
 62
   256
  9
$CELTSCALE
 40
1.0
  9
$DISPSILH
 70
     0
  9
$DIMSCALE
 40
1.0
  9
$DIMASZ
 40
2.5
  9
$DIMEXO
 40
0.625
  9
$DIMDLI
 40
3.75
  9
$DIMRND
 40
0.0
  9
$DIMDLE
 40
0.0
  9
$DIMEXE
 40
1.25
  9
$DIMTP
 40
0.0
  9
$DIMTM
 40
0.0
  9
$DIMTXT
 40
2.5
  9
$DIMCEN
 40
2.5
  9
$DIMTSZ
 40
0.0
  9
$DIMTOL
 70
     0
  9
$DIMLIM
 70
     0
  9
$DIMTIH
 70
     0
  9
$DIMTOH
 70
     0
  9
$DIMSE1
 70
     0
  9
$DIMSE2
 70
     0
  9
$DIMTAD
 70
     1
  9
$DIMZIN
 70
     8
  9
$DIMBLK
  1

  9
$DIMASO
 70
     1
  9
$DIMSHO
 70
     1
  9
$DIMPOST
  1

  9
$DIMAPOST
  1

  9
$DIMALT
 70
     0
  9
$DIMALTD
 70
     3
  9
$DIMALTF
 40
0.03937
  9
$DIMLFAC
 40
1.0
  9
$DIMTOFL
 70
     1
  9
$DIMTVP
 40
0.0
  9
$DIMTIX
 70
     0
  9
$DIMSOXD
 70
     0
  9
$DIMSAH
 70
     0
  9
$DIMBLK1
  1

  9
$DIMBLK2
  1

  9
$DIMSTYLE
  2
Standard
  9
$DIMCLRD
 70
     0
  9
$DIMCLRE
 70
     0
  9
$DIMCLRT
 70
     0
  9
$DIMTFAC
 40
1.0
  9
$DIMGAP
 40
0.625
  9
$DIMJUST
 70
     0
  9
$DIMSD1
 70
     0
  9
$DIMSD2
 70
     0
  9
$DIMTOLJ
 70
     0
  9
$DIMTZIN
 70
     8
  9
$DIMALTZ
 70
     0
  9
$DIMALTTZ
 70
     0
  9
$DIMUPT
 70
     0
  9
$DIMDEC
 70
     2
  9
$DIMTDEC
 70
     2
  9
$DIMALTU
 70
     2
  9
$DIMALTTD
 70
     3
  9
$DIMTXSTY
  7
Standard
  9
$DIMAUNIT
 70
     0
  9
$DIMADEC
 70
     0
  9
$DIMALTRND
 40
0.0
  9
$DIMAZIN
 70
     0
  9
$DIMDSEP
 70
    44
  9
$DIMATFIT
 70
     0
  9
$DIMFRAC
 70
     0
  9
$DIMLDRBLK
  1

  9
$DIMLUNIT
 70
     2
  9
$DIMLWD
 70
    -2
  9
$DIMLWE
 70
    -2
  9
$DIMTMOVE
 70
     0
  9
$DIMFXL
 40
1.0
  9
$DIMFXLON
 70
     0
  9
$DIMJOGANG
 40
0.7853981633974483
  9
$DIMTFILL
 70
     0
  9
$DIMTFILLCLR
 70
     0
  9
$DIMARCSYM
 70
     0
  9
$DIMLTYPE
  6

  9
$DIMLTEX1
  6

  9
$DIMLTEX2
  6

  9
$LUNITS
 70
     2
  9
$LUPREC
 70
     4
  9
$SKETCHINC
 40
1.0
  9
$FILLETRAD
 40
2.5
  9
$AUNITS
 70
     0
  9
$AUPREC
 70
     0
  9
$MENU
  1
.
  9
$ELEVATION
 40
0.0
  9
$PELEVATION
 40
0.0
  9
$THICKNESS
 40
0.0
  9
$LIMCHECK
 70
     0
  9
$CHAMFERA
 40
2.5
  9
$CHAMFERB
 40
2.5
  9
$CHAMFERC
 40
0.0
  9
$CHAMFERD
 40
0.0
  9
$SKPOLY
 70
     0
  9
$TDCREATE
 40
2447893.041666667
  9
$TDUCREATE
 40
0.0
  9
$TDUPDATE
 40
2447893.041666667
  9
$TDUUPDATE
 40
0.0
  9
$TDINDWG
 40
0.0
  9
$TDUSRTIMER
 40
0.0
  9
$USRTIMER
 70
     1
  9
$ANGBASE
 50
0.0
  9
$ANGDIR
 70
     0
  9
$PDMODE
 70
     0
  9
$PDSIZE
 40
0.0
  9
$PLINEWID
 40
0.0
  9
$SPLFRAME
 70
     0
  9
$SPLINETYPE
 70
     6
  9
$SPLINESEGS
 70
     8
  9
$HANDSEED
  5
193
  9
$SURFTAB1
 70
     6
  9
$SURFTAB2
 70
     6
  9
$SURFTYPE
 70
     6
  9
$SURFU
 70
     6
  9
$SURFV
 70
     6
  9
$UCSBASE
  2

  9
$UCSNAME
  2

  9
$UCSORG
 10
0.0
 20
0.0
 30
0.0
  9
$UCSXDIR
 10
1.0
 20
0.0
 30
0.0
  9
$UCSYDIR
 10
0.0
 20
1.0
 30
0.0
  9
$UCSORTHOREF
  2

  9
$UCSORTHOVIEW
 70
     1
  9
$UCSORGTOP
 10
0.0
 20
0.0
 30
0.0
  9
$UCSORGBOTTOM
 10
0.0
 20
0.0
 30
0.0
  9
$UCSORGLEFT
 10
0.0
 20
0.0
 30
0.0
  9
$UCSORGRIGHT
 10
0.0
 20
0.0
 30
0.0
  9
$UCSORGFRONT
 10
0.0
 20
0.0
 30
0.0
  9
$UCSORGBACK
 10
0.0
 20
0.0
 30
0.0
  9
$PUCSBASE
  2

  9
$PUCSNAME
  2

  9
$PUCSORG
 10
0.0
 20
0.0
 30
0.0
  9
$PUCSXDIR
 10
1.0
 20
0.0
 30
0.0
  9
$PUCSYDIR
 10
0.0
 20
1.0
 30
0.0
  9
$PUCSORTHOREF
  2

  9
$PUCSORTHOVIEW
 70
     0
  9
$PUCSORGTOP
 10
0.0
 20
0.0
 30
0.0
  9
$PUCSORGBOTTOM
 10
0.0
 20
0.0
 30
0.0
  9
$PUCSORGLEFT
 10
0.0
 20
0.0
 30
0.0
  9
$PUCSORGRIGHT
 10
0.0
 20
0.0
 30
0.0
  9
$PUCSORGFRONT
 10
0.0
 20
0.0
 30
0.0
  9
$PUCSORGBACK
 10
0.0
 20
0.0
 30
0.0
  9
$USERI1
 70
     0
  9
$USERI2
 70
     0
  9
$USERI3
 70
     0
  9
$USERI4
 70
     0
  9
$USERI5
 70
     0
  9
$USERR1
 40
0.0
  9
$USERR2
 40
0.0
  9
$USERR3
 40
0.0
  9
$USERR4
 40
0.0
  9
$USERR5
 40
0.0
  9
$WORLDVIEW
 70
     1
  9
$SHADEDGE
 70
     3
  9
$SHADEDIF
 70
    70
  9
$TILEMODE
 70
     1
  9
$MAXACTVP
 70
    48
  9
$PINSBASE
 10
0.0
 20
0.0
 30
0.0
  9
$PLIMCHECK
 70
     0
  9
$PEXTMIN
 10
0.0
 20
0.0
 30
0.0
  9
$PEXTMAX
 10
744.5
 20
518.0
 30
2.0
  9
$PLIMMIN
 10
0.0
 20
0.0
  9
$PLIMMAX
 10
420.0
 20
297.0
  9
$UNITMODE
 70
     0
  9
$VISRETAIN
 70
     0
  9
$PLINEGEN
 70
     0
  9
$PSLTSCALE
 70
     1
  9
$TREEDEPTH
 70
  3020
  9
$CMLSTYLE
  2
Standard
  9
$CMLJUST
 70
     0
  9
$CMLSCALE
 40
20.0
  9
$PROXYGRAPHICS
 70
     1
  9
$MEASUREMENT
 70
     1
  9
$CELWEIGHT
370
    -1
  9
$ENDCAPS
280
     0
  9
$JOINSTYLE
280
     0
  9
$LWDISPLAY
290
     0
  9
$INSUNITS
 70
     0
  9
$HYPERLINKBASE
  1

  9
$STYLESHEET
  1

  9
$XEDIT
290
     1
  9
$CEPSNTYPE
380
     0
  9
$PSTYLEMODE
290
     0
  9
$FINGERPRINTGUID
  2

  9
$VERSIONGUID
  2

  9
$EXTNAMES
290
     0
  9
$PSVPSCALE
 40
0.0
  9
$OLESTARTUP
290
     0
  9
$SORTENTS
280
   127
  9
$INDEXCTL
280
     0
  9
$HIDETEXT
280
     1
  9
$XCLIPFRAME
290
     0
  9
$HALOGAP
280
     0
  9
$OBSCOLOR
 70
   257
  9
$OBSLTYPE
280
     0
  9
$INTERSECTIONDISPLAY
280
     0
  9
$INTERSECTIONCOLOR
 70
   257
  9
$DIMASSOC
280
     2
  9
$PROJECTNAME
  1

  9
$CAMERADISPLAY
290
     0
  9
$LENSLENGTH
 40
50.0
  9
$CAMERAHEIGHT
 40
0.0
  9
$STEPSPERSEC
 40
2.0
  9
$STEPSIZE
 40
6.0
  9
$3DDWFPREC
 40
2.0
  9
$PSOLWIDTH
 40
0.25
  9
$PSOLHEIGHT
 40
4.0
  9
$LOFTANG1
 40
1.570796326794897
  9
$LOFTANG2
 40
1.570796326794897
  9
$LOFTMAG1
 40
0.0
  9
$LOFTMAG2
 40
0.0
  9
$LOFTPARAM
 70
     7
  9
$LOFTNORMALS
280
     1
  9
$LATITUDE
 40
37.795
  9
$LONGITUDE
 40
-122.394
  9
$NORTHDIRECTION
 40
0.0
  9
$TIMEZONE
 70
 -8000
  9
$LIGHTGLYPHDISPLAY
280
     1
  9
$TILEMODELIGHTSYNCH
280
     1
  9
$SOLIDHIST
280
     1
  9
$SHOWHIST
280
     1
  9
$DWFFRAME
280
     2
  9
$DGNFRAME
280
     2
  9
$REALWORLDSCALE
290
     1
  9
$INTERFERECOLOR
 62
   256
  9
$CSHADOW
280
     0
  9
$SHADOWPLANELOCATION
 40
0.0
  0
ENDSEC
  0
SECTION
  2
CLASSES
  0
CLASS
  1
LWPOLYLINE
  2
AcDbPolyline
  3
AutoCAD 2000
 90
        0
 91
        1
280
     0
281
     1
  0
CLASS
  1
IMAGE
  2
AcDbRasterImage
  3
ISM
 90
      127
 91
        5
280
     0
281
     1
  0
CLASS
  1
OLE2FRAME
  2
AcDbOle2Frame
  3
AutoCAD 2000
 90
        0
 91
        1
280
     0
281
     1
  0
CLASS
  1
HATCH
  2
AcDbHatch
  3
AutoCAD 2000
 90
        0
 91
        1
280
     0
281
     1
  0
CLASS
  1
DICTIONARYVAR
  2
AcDbDictionaryVar
  3
ObjectDBX Classes
 90
        0
 91
        4
280
     0
281
     0
  0
CLASS
  1
RASTERVARIABLES
  2
AcDbRasterVariables
  3
ISM
 90
        0
 91
        4
280
     0
281
     0
  0
CLASS
  1
IMAGEDEF
  2
AcDbRasterImageDef
  3
ISM
 90
        0
 91
        4
280
     0
281
     0
  0
CLASS
  1
IMAGEDEF_REACTOR
  2
AcDbRasterImageDefReactor
  3
ISM
 90
        1
 91
        4
280
     0
281
     0
  0
CLASS
  1
IDBUFFER
  2
AcDbIdBuffer
  3
ObjectDBX Classes
 90
        0
 91
        4
280
     0
281
     0
  0
CLASS
  1
SPATIAL_FILTER
  2
AcDbSpatialFilter
  3
ObjectDBX Classes
 90
        0
 91
        4
280
     0
281
     0
  0
CLASS
  1
XRECORD
  2
AcDbXrecord
  3
AutoCAD 2000
 90
        0
 91
        1
280
     0
281
     0
  0
CLASS
  1
SORTENTSTABLE
  2
AcDbSortentsTable
  3
ObjectDBX Classes
 90
        0
 91
        4
280
     0
281
     0
  0
CLASS
  1
LAYER_INDEX
  2
AcDbLayerIndex
  3
ObjectDBX Classes
 90
        0
 91
        4
280
     0
281
     0
  0
CLASS
  1
SPATIAL_INDEX
  2
AcDbSpatialIndex
  3
AutoCAD 2000
 90
        0
 91
        4
280
     0
281
     0
  0
CLASS
  1
OBJECT_PTR
  2
CAseDLPNTableRecord
  3
ASE-LPNTableRecord
 90
        1
 91
        4
280
     0
281
     0
  0
CLASS
  1
LAYOUT
  2
AcDbLayout
  3
ObjectDBX Classes
 90
        0
 91
        1
280
     0
281
     0
  0
CLASS
  1
PLOTSETTINGS
  2
AcDbPlotSettings
  3
ObjectDBX Classes
 90
        0
 91
        4
280
     0
281
     0
  0
CLASS
  1
ACDBDICTIONARYWDFLT
  2
AcDbDictionaryWithDefault
  3
ObjectDBX Classes
 90
        0
 91
        4
280
     0
281
     0
  0
CLASS
  1
ACDBPLACEHOLDER
  2
AcDbPlaceHolder
  3
ObjectDBX Classes
 90
        0
 91
        1
280
     0
281
     0
  0
CLASS
  1
VBA_PROJECT
  2
AcDbVbaProject
  3
ObjectDBX Classes
 90
        0
 91
        1
280
     0
281
     0
  0
CLASS
  1
WIPEOUT
  2
AcDbWipeout
  3
WipeOut|AutoCAD Express Tool|expresstools@autodesk.com
 90
      127
 91
        4
280
     0
281
     1
  0
CLASS
  1
WIPEOUTVARIABLES
  2
AcDbWipeoutVariables
  3
WipeOut|AutoCAD Express Tool|expresstools@autodesk.com
 90
        0
 91
        4
280
     0
281
     0
  0
CLASS
  1
RTEXT
  2
RText
  3
RText|AutoCAD Express Tool|expresstools@autodesk.com
 90
        0
 91
        4
280
     0
281
     1
  0
CLASS
  1
ARCALIGNEDTEXT
  2
AcDbArcAlignedText
  3
ATEXT|AutoCAD Express Tool|expresstools@autodesk.com
 90
        0
 91
        4
280
     0
281
     1
  0
CLASS
  1
SCALE
  2
AcDbScale
  3
ObjectDBX Classes
 90
     1153
 91
        4
280
     0
281
     0
  0
ENDSEC
  0
SECTION
  2
TABLES
  0
TABLE
  2
VPORT
  5
7
330
0
100
AcDbSymbolTable
 70
     1
  0
VPORT
  5
15
330
7
100
AcDbSymbolTableRecord
100
AcDbViewportTableRecord
  2
*ACTIVE
 70
     0
 10
0.0
 20
0.0
 11
1.0
 21
1.0
 12
6.591288
 22
4.579184
 13
0.0
 23
0.0
 14
1.0
 24
1.0
 15
0.0
 25
0.0
 16
0.0
 26
0.0
 36
1.0
 17
0.0
 27
0.0
 37
0.0
 40
9.158369
 41
0.688564
 42
50.0
 43
0.0
 44
0.0
 50
0.0
 51
0.0
 71
     0
 72
   100
 73
     1
 74
     1
 75
     0
 76
     0
 77
     0
 78
     0
281
     0
 65
     0
110
0.0
120
0.0
130
0.0
111
1.0
121
0.0
131
0.0
112
0.0
122
1.0
132
0.0
 79
     0
146
0.0
 60
     3
 61
     5
292
     1
282
     1
141
0.0
142
0.0
 63
   250
  0
ENDTAB
  0
TABLE
  2
LTYPE
  5
4
330
0
100
AcDbSymbolTable
 70
     1
  0
LTYPE
  5
11
330
4
100
AcDbSymbolTableRecord
100
AcDbLinetypeTableRecord
  2
ByBlock
 70
     0
  3

 72
    65
 73
     0
 40
0.0
  0
LTYPE
  5
12
330
4
100
AcDbSymbolTableRecord
100
AcDbLinetypeTableRecord
  2
ByLayer
 70
     0
  3

 72
    65
 73
     0
 40
0.0
  0
LTYPE
  5
13
330
4
100
AcDbSymbolTableRecord
100
AcDbLinetypeTableRecord
  2
Continuous
 70
     0
  3
Solid line
 72
    65
 73
     0
 40
0.0
  0
ENDTAB
  0
TABLE
  2
LAYER
  5
2
330
0
100
AcDbSymbolTable
 70
     1
  0
LAYER
  5
14
330
2
100
AcDbSymbolTableRecord
100
AcDbLayerTableRecord
  2
0
 70
     0
 62
     7
  6
Continuous
370
    -3
390
1D
347
0
  0
ENDTAB
  0
TABLE
  2
STYLE
  5
3
330
0
100
AcDbSymbolTable
 70
     1
  0
STYLE
  5
17
330
3
100
AcDbSymbolTableRecord
100
AcDbTextStyleTableRecord
  2
Standard
 70
     0
 40
0.0
 41
1.0
 50
0.0
 71
     0
 42
2.5
  3
txt
  4

  0
ENDTAB
  0
TABLE
  2
VIEW
  5
5
330
0
100
AcDbSymbolTable
 70
     0
  0
ENDTAB
  0
TABLE
  2
UCS
  5
6
330
0
100
AcDbSymbolTable
 70
     0
  0
ENDTAB
  0
TABLE
  2
APPID
  5
8
330
0
100
AcDbSymbolTable
 70
     1
  0
APPID
  5
16
330
8
100
AcDbSymbolTableRecord
100
AcDbRegAppTableRecord
  2
ACAD
 70
     0
  0
ENDTAB
  0
TABLE
  2
DIMSTYLE
  5
9
330
0
100
AcDbSymbolTable
 70
     1
100
AcDbDimStyleTable
  0
DIMSTYLE
105
18
330
9
100
AcDbSymbolTableRecord
100
AcDbDimStyleTableRecord
  2
Standard
 70
     0
340
17
  0
ENDTAB
  0
TABLE
  2
BLOCK_RECORD
  5
1
330
0
100
AcDbSymbolTable
 70
     0
  0
BLOCK_RECORD
  5
A
330
1
100
AcDbSymbolTableRecord
100
AcDbBlockTableRecord
  2
*MODEL_SPACE
340
20
 70
     0
280
     1
281
     0
  0
BLOCK_RECORD
  5
B
330
1
100
AcDbSymbolTableRecord
100
AcDbBlockTableRecord
  2
*PAPER_SPACE
340
21
 70
     0
280
     1
281
     0
  0
ENDTAB
  0
ENDSEC
  0
SECTION
  2
BLOCKS
  0
BLOCK
  5
D
330
A
100
AcDbEntity
  8
0
390
1D
100
AcDbBlockBegin
  2
*MODEL_SPACE
 70
     0
 10
0.0
 20
0.0
 30
0.0
  3
*MODEL_SPACE
  1

  0
ENDBLK
  5
E
330
A
100
AcDbEntity
  8
0
390
1D
100
AcDbBlockEnd
  0
BLOCK
  5
F
330
B
100
AcDbEntity
 67
     1
  8
0
390
1D
100
AcDbBlockBegin
  2
*PAPER_SPACE
 70
     0
 10
0.0
 20
0.0
 30
0.0
  3
*PAPER_SPACE
  1

  0
ENDBLK
  5
10
330
B
100
AcDbEntity
 67
     1
  8
0
390
1D
100
AcDbBlockEnd
  0
ENDSEC
  0
SECTION
  2
ENTITIES
  0
POLYLINE
  5
24
330
A
100
AcDbEntity
  8
0
 62
     7
370
    13
390
1D
100
AcDb2dPolyline
 66
     1
 10
0.0
 20
0.0
 30
0.0
  0
VERTEX
  5
25
330
24
100
AcDbEntity
  8
0
 62
     7
370
     0
390
1D
100
AcDbVertex
100
AcDb2dVertex
 10
534.679565
 20
435.818542
 30
0.0
  0
VERTEX
  5
26
330
24
100
AcDbEntity
  8
0
 62
     7
370
     0
390
1D
100
AcDbVertex
100
AcDb2dVertex
 10
533.279541
 20
435.818542
 30
0.0
  0
VERTEX
  5
27
330
24
100
AcDbEntity
  8
0
 62
     7
370
     0
390
1D
100
AcDbVertex
100
AcDb2dVertex
 10
532.812866
 20
436.285217
 30
0.0
  0
VERTEX
  5
28
330
24
100
AcDbEntity
  8
0
 62
     7
370
     0
390
1D
100
AcDbVertex
100
AcDb2dVertex
 10
532.812866
 20
437.451904
 30
0.0
  0
VERTEX
  5
29
330
24
100
AcDbEntity
  8
0
 62
     7
370
     0
390
1D
100
AcDbVertex
100
AcDb2dVertex
 10
533.279541
 20
437.918518
 30
0.0
  0
VERTEX
  5
2A
330
24
100
AcDbEntity
  8
0
 62
     7
370
     0
390
1D
100
AcDbVertex
100
AcDb2dVertex
 10
534.212891
 20
437.918518
 30
0.0
  0
VERTEX
  5
2B
330
24
100
AcDbEntity
  8
0
 62
     7
370
     0
390
1D
100
AcDbVertex
100
AcDb2dVertex
 10
534.679565
 20
437.451904
 30
0.0
  0
VERTEX
  5
2C
330
24
100
AcDbEntity
  8
0
 62
     7
370
     0
390
1D
100
AcDbVertex
100
AcDb2dVertex
 10
534.679565
 20
436.985229
 30
0.0
  0
VERTEX
  5
2D
330
24
100
AcDbEntity
  8
0
 62
     7
370
     0
390
1D
100
AcDbVertex
100
AcDb2dVertex
 10
534.446228
 20
436.751892
 30
0.0
  0
VERTEX
  5
2E
330
24
100
AcDbEntity
  8
0
 62
     7
370
     0
390
1D
100
AcDbVertex
100
AcDb2dVertex
 10
532.812866
 20
436.751892
 30
0.0
  0
SEQEND
  5
2F
330
24
100
AcDbEntity
  8
0
370
     0
390
1D
  0
LINE
  5
30
330
A
100
AcDbEntity
  8
0
 62
     7
 48
0.070242
370
    13
390
1D
100
AcDbLine
 10
535.892883
 20
435.818542
 30
0.0
 11
537.759521
 21
437.918518
 31
0.0
  0
LINE
  5
31
330
A
100
AcDbEntity
  8
0
 62
     7
 48
0.070242
370
    13
390
1D
100
AcDbLine
 10
537.759521
 20
435.818542
 30
0.0
 11
535.892883
 21
437.918518
 31
0.0
  0
POLYLINE
  5
32
330
A
100
AcDbEntity
  8
0
 62
     7
370
    13
390
1D
100
AcDb2dPolyline
 66
     1
 10
0.0
 20
0.0
 30
0.0
  0
VERTEX
  5
33
330
32
100
AcDbEntity
  8
0
 62
     7
370
     0
390
1D
100
AcDbVertex
100
AcDb2dVertex
 10
540.8396
 20
436.285217
 30
0.0
  0
VERTEX
  5
34
330
32
100
AcDbEntity
  8
0
 62
     7
370
     0
390
1D
100
AcDbVertex
100
AcDb2dVertex
 10
540.372925
 20
435.818542
 30
0.0
  0
VERTEX
  5
35
330
32
100
AcDbEntity
  8
0
 62
     7
370
     0
390
1D
100
AcDbVertex
100
AcDb2dVertex
 10
539.439575
 20
435.818542
 30
0.0
  0
VERTEX
  5
36
330
32
100
AcDbEntity
  8
0
 62
     7
370
     0
390
1D
100
AcDbVertex
100
AcDb2dVertex
 10
538.9729
 20
436.285217
 30
0.0
  0
VERTEX
  5
37
330
32
100
AcDbEntity
  8
0
 62
     7
370
     0
390
1D
100
AcDbVertex
100
AcDb2dVertex
 10
538.9729
 20
437.451904
 30
0.0
  0
VERTEX
  5
38
330
32
100
AcDbEntity
  8
0
 62
     7
370
     0
390
1D
100
AcDbVertex
100
AcDb2dVertex
 10
539.439575
 20
437.918518
 30
0.0
  0
VERTEX
  5
39
330
32
100
AcDbEntity
  8
0
 62
     7
370
     0
390
1D
100
AcDbVertex
100
AcDb2dVertex
 10
540.372925
 20
437.918518
 30
0.0
  0
VERTEX
  5
3A
330
32
100
AcDbEntity
  8
0
 62
     7
370
     0
390
1D
100
AcDbVertex
100
AcDb2dVertex
 10
540.8396
 20
437.451904
 30
0.0
  0
SEQEND
  5
3B
330
32
100
AcDbEntity
  8
0
370
     0
390
1D
  0
POLYLINE
  5
3C
330
A
100
AcDbEntity
  8
0
 62
     7
370
    13
390
1D
100
AcDb2dPolyline
 66
     1
 10
0.0
 20
0.0
 30
0.0
 70
     1
  0
VERTEX
  5
3D
330
3C
100
AcDbEntity
  8
0
 62
     7
370
     0
390
1D
100
AcDbVertex
100
AcDb2dVertex
 10
543.919556
 20
437.451904
 30
0.0
  0
VERTEX
  5
3E
330
3C
100
AcDbEntity
  8
0
 62
     7
370
     0
390
1D
100
AcDbVertex
100
AcDb2dVertex
 10
543.919556
 20
436.285217
 30
0.0
  0
VERTEX
  5
3F
330
3C
100
AcDbEntity
  8
0
 62
     7
370
     0
390
1D
100
AcDbVertex
100
AcDb2dVertex
 10
543.452881
 20
435.818542
 30
0.0
  0
VERTEX
  5
40
330
3C
100
AcDbEntity
  8
0
 62
     7
370
     0
390
1D
100
AcDbVertex
100
AcDb2dVertex
 10
542.519531
 20
435.818542
 30
0.0
  0
VERTEX
  5
41
330
3C
100
AcDbEntity
  8
0
 62
     7
370
     0
390
1D
100
AcDbVertex
100
AcDb2dVertex
 10
542.052856
 20
436.285217
 30
0.0
  0
VERTEX
  5
42
330
3C
100
AcDbEntity
  8
0
 62
     7
370
     0
390
1D
100
AcDbVertex
100
AcDb2dVertex
 10
542.052856
 20
437.451904
 30
0.0
  0
VERTEX
  5
43
330
3C
100
AcDbEntity
  8
0
 62
     7
370
     0
390
1D
100
AcDbVertex
100
AcDb2dVertex
 10
542.519531
 20
437.918518
 30
0.0
  0
VERTEX
  5
44
330
3C
100
AcDbEntity
  8
0
 62
     7
370
     0
390
1D
100
AcDbVertex
100
AcDb2dVertex
 10
543.452881
 20
437.918518
 30
0.0
  0
SEQEND
  5
45
330
3C
100
AcDbEntity
  8
0
370
     0
390
1D
  0
LINE
  5
46
330
A
100
AcDbEntity
  8
0
 62
     7
 48
0.046667
370
    13
390
1D
100
AcDbLine
 10
548.212891
 20
437.685181
 30
0.0
 11
550.07959
 21
437.685181
 31
0.0
  0
POLYLINE
  5
47
330
A
100
AcDbEntity
  8
0
 62
     7
370
    13
390
1D
100
AcDb2dPolyline
 66
     1
 10
0.0
 20
0.0
 30
0.0
  0
VERTEX
  5
48
330
47
100
AcDbEntity
  8
0
 62
     7
370
     0
390
1D
100
AcDbVertex
100
AcDb2dVertex
 10
556.239563
 20
436.285217
 30
0.0
  0
VERTEX
  5
49
330
47
100
AcDbEntity
  8
0
 62
     7
370
     0
390
1D
100
AcDbVertex
100
AcDb2dVertex
 10
555.772888
 20
435.818542
 30
0.0
  0
VERTEX
  5
4A
330
47
100
AcDbEntity
  8
0
 62
     7
370
     0
390
1D
100
AcDbVertex
100
AcDb2dVertex
 10
554.839539
 20
435.818542
 30
0.0
  0
VERTEX
  5
4B
330
47
100
AcDbEntity
  8
0
 62
     7
370
     0
390
1D
100
AcDbVertex
100
AcDb2dVertex
 10
554.372925
 20
436.285217
 30
0.0
  0
VERTEX
  5
4C
330
47
100
AcDbEntity
  8
0
 62
     7
370
     0
390
1D
100
AcDbVertex
100
AcDb2dVertex
 10
554.372925
 20
437.451904
 30
0.0
  0
VERTEX
  5
4D
330
47
100
AcDbEntity
  8
0
 62
     7
370
     0
390
1D
100
AcDbVertex
100
AcDb2dVertex
 10
554.839539
 20
437.918518
 30
0.0
  0
VERTEX
  5
4E
330
47
100
AcDbEntity
  8
0
 62
     7
370
     0
390
1D
100
AcDbVertex
100
AcDb2dVertex
 10
555.772888
 20
437.918518
 30
0.0
  0
VERTEX
  5
4F
330
47
100
AcDbEntity
  8
0
 62
     7
370
     0
390
1D
100
AcDbVertex
100
AcDb2dVertex
 10
556.239563
 20
437.451904
 30
0.0
  0
SEQEND
  5
50
330
47
100
AcDbEntity
  8
0
370
     0
390
1D
  0
POLYLINE
  5
51
330
A
100
AcDbEntity
  8
0
 62
     7
370
    13
390
1D
100
AcDb2dPolyline
 66
     1
 10
0.0
 20
0.0
 30
0.0
  0
VERTEX
  5
52
330
51
100
AcDbEntity
  8
0
 62
     7
370
     0
390
1D
100
AcDbVertex
100
AcDb2dVertex
 10
557.686218
 20
437.918518
 30
0.0
  0
VERTEX
  5
53
330
51
100
AcDbEntity
  8
0
 62
     7
370
     0
390
1D
100
AcDbVertex
100
AcDb2dVertex
 10
558.619568
 20
437.918518
 30
0.0
  0
VERTEX
  5
54
330
51
100
AcDbEntity
  8
0
 62
     7
370
     0
390
1D
100
AcDbVertex
100
AcDb2dVertex
 10
559.086182
 20
437.451904
 30
0.0
  0
VERTEX
  5
55
330
51
100
AcDbEntity
  8
0
 62
     7
370
     0
390
1D
100
AcDbVertex
100
AcDb2dVertex
 10
559.086182
 20
436.285217
 30
0.0
  0
VERTEX
  5
56
330
51
100
AcDbEntity
  8
0
 62
     7
370
     0
390
1D
100
AcDbVertex
100
AcDb2dVertex
 10
559.552856
 20
435.818542
 30
0.0
  0
SEQEND
  5
57
330
51
100
AcDbEntity
  8
0
370
     0
390
1D
  0
POLYLINE
  5
58
330
A
100
AcDbEntity
  8
0
 62
     7
370
    13
390
1D
100
AcDb2dPolyline
 66
     1
 10
0.0
 20
0.0
 30
0.0
  0
VERTEX
  5
59
330
58
100
AcDbEntity
  8
0
 62
     7
370
     0
390
1D
100
AcDbVertex
100
AcDb2dVertex
 10
559.086182
 20
436.285217
 30
0.0
  0
VERTEX
  5
5A
330
58
100
AcDbEntity
  8
0
 62
     7
370
     0
390
1D
100
AcDbVertex
100
AcDb2dVertex
 10
558.619568
 20
435.818542
 30
0.0
  0
VERTEX
  5
5B
330
58
100
AcDbEntity
  8
0
 62
     7
370
     0
390
1D
100
AcDbVertex
100
AcDb2dVertex
 10
557.686218
 20
435.818542
 30
0.0
  0
VERTEX
  5
5C
330
58
100
AcDbEntity
  8
0
 62
     7
370
     0
390
1D
100
AcDbVertex
100
AcDb2dVertex
 10
557.219543
 20
436.285217
 30
0.0
  0
VERTEX
  5
5D
330
58
100
AcDbEntity
  8
0
 62
     7
370
     0
390
1D
100
AcDbVertex
100
AcDb2dVertex
 10
557.219543
 20
436.518555
 30
0.0
  0
VERTEX
  5
5E
330
58
100
AcDbEntity
  8
0
 62
     7
370
     0
390
1D
100
AcDbVertex
100
AcDb2dVertex
 10
557.686218
 20
436.985229
 30
0.0
  0
VERTEX
  5
5F
330
58
100
AcDbEntity
  8
0
 62
     7
370
     0
390
1D
100
AcDbVertex
100
AcDb2dVertex
 10
559.086182
 20
436.985229
 30
0.0
  0
SEQEND
  5
60
330
58
100
AcDbEntity
  8
0
370
     0
390
1D
  0
POLYLINE
  5
61
330
A
100
AcDbEntity
  8
0
 62
     7
370
    13
390
1D
100
AcDb2dPolyline
 66
     1
 10
0.0
 20
0.0
 30
0.0
  0
VERTEX
  5
62
330
61
100
AcDbEntity
  8
0
 62
     7
370
     0
390
1D
100
AcDbVertex
100
AcDb2dVertex
 10
562.399536
 20
437.918518
 30
0.0
  0
VERTEX
  5
63
330
61
100
AcDbEntity
  8
0
 62
     7
370
     0
390
1D
100
AcDbVertex
100
AcDb2dVertex
 10
560.999512
 20
437.918518
 30
0.0
  0
VERTEX
  5
64
330
61
100
AcDbEntity
  8
0
 62
     7
370
     0
390
1D
100
AcDbVertex
100
AcDb2dVertex
 10
560.532898
 20
437.451904
 30
0.0
  0
VERTEX
  5
65
330
61
100
AcDbEntity
  8
0
 62
     7
370
     0
390
1D
100
AcDbVertex
100
AcDb2dVertex
 10
560.999512
 20
436.985229
 30
0.0
  0
VERTEX
  5
66
330
61
100
AcDbEntity
  8
0
 62
     7
370
     0
390
1D
100
AcDbVertex
100
AcDb2dVertex
 10
562.16626
 20
436.985229
 30
0.0
  0
VERTEX
  5
67
330
61
100
AcDbEntity
  8
0
 62
     7
370
     0
390
1D
100
AcDbVertex
100
AcDb2dVertex
 10
562.399536
 20
436.751892
 30
0.0
  0
VERTEX
  5
68
330
61
100
AcDbEntity
  8
0
 62
     7
370
     0
390
1D
100
AcDbVertex
100
AcDb2dVertex
 10
562.399536
 20
436.285217
 30
0.0
  0
VERTEX
  5
69
330
61
100
AcDbEntity
  8
0
 62
     7
370
     0
390
1D
100
AcDbVertex
100
AcDb2dVertex
 10
561.932861
 20
435.818542
 30
0.0
  0
VERTEX
  5
6A
330
61
100
AcDbEntity
  8
0
 62
     7
370
     0
390
1D
100
AcDbVertex
100
AcDb2dVertex
 10
560.532898
 20
435.818542
 30
0.0
  0
SEQEND
  5
6B
330
61
100
AcDbEntity
  8
0
370
     0
390
1D
  0
LINE
  5
6C
330
A
100
AcDbEntity
  8
0
 62
     7
 48
0.052499
370
    13
390
1D
100
AcDbLine
 10
564.546204
 20
435.818542
 30
0.0
 11
564.546204
 21
437.918518
 31
0.0
  0
POLYLINE
  5
6D
330
A
100
AcDbEntity
  8
0
 62
     7
370
    13
390
1D
100
AcDb2dPolyline
 66
     1
 10
0.0
 20
0.0
 30
0.0
 70
     1
  0
VERTEX
  5
6E
330
6D
100
AcDbEntity
  8
0
 62
     7
370
     0
390
1D
100
AcDbVertex
100
AcDb2dVertex
 10
564.546204
 20
439.178528
 30
0.0
  0
VERTEX
  5
6F
330
6D
100
AcDbEntity
  8
0
 62
     7
370
     0
390
1D
100
AcDbVertex
100
AcDb2dVertex
 10
564.639526
 20
439.085205
 30
0.0
  0
VERTEX
  5
70
330
6D
100
AcDbEntity
  8
0
 62
     7
370
     0
390
1D
100
AcDbVertex
100
AcDb2dVertex
 10
564.546204
 20
438.991882
 30
0.0
  0
VERTEX
  5
71
330
6D
100
AcDbEntity
  8
0
 62
     7
370
     0
390
1D
100
AcDbVertex
100
AcDb2dVertex
 10
564.452881
 20
439.085205
 30
0.0
  0
SEQEND
  5
72
330
6D
100
AcDbEntity
  8
0
370
     0
390
1D
  0
POLYLINE
  5
73
330
A
100
AcDbEntity
  8
0
 62
     7
370
    13
390
1D
100
AcDb2dPolyline
 66
     1
 10
0.0
 20
0.0
 30
0.0
  0
VERTEX
  5
74
330
73
100
AcDbEntity
  8
0
 62
     7
370
     0
390
1D
100
AcDbVertex
100
AcDb2dVertex
 10
566.226196
 20
437.918518
 30
0.0
  0
VERTEX
  5
75
330
73
100
AcDbEntity
  8
0
 62
     7
370
     0
390
1D
100
AcDbVertex
100
AcDb2dVertex
 10
566.692871
 20
437.451904
 30
0.0
  0
VERTEX
  5
76
330
73
100
AcDbEntity
  8
0
 62
     7
370
     0
390
1D
100
AcDbVertex
100
AcDb2dVertex
 10
566.692871
 20
435.818542
 30
0.0
  0
SEQEND
  5
77
330
73
100
AcDbEntity
  8
0
370
     0
390
1D
  0
POLYLINE
  5
78
330
A
100
AcDbEntity
  8
0
 62
     7
370
    13
390
1D
100
AcDb2dPolyline
 66
     1
 10
0.0
 20
0.0
 30
0.0
  0
VERTEX
  5
79
330
78
100
AcDbEntity
  8
0
 62
     7
370
     0
390
1D
100
AcDbVertex
100
AcDb2dVertex
 10
566.692871
 20
437.451904
 30
0.0
  0
VERTEX
  5
7A
330
78
100
AcDbEntity
  8
0
 62
     7
370
     0
390
1D
100
AcDbVertex
100
AcDb2dVertex
 10
567.159546
 20
437.918518
 30
0.0
  0
VERTEX
  5
7B
330
78
100
AcDbEntity
  8
0
 62
     7
370
     0
390
1D
100
AcDbVertex
100
AcDb2dVertex
 10
568.092896
 20
437.918518
 30
0.0
  0
VERTEX
  5
7C
330
78
100
AcDbEntity
  8
0
 62
     7
370
     0
390
1D
100
AcDbVertex
100
AcDb2dVertex
 10
568.55957
 20
437.451904
 30
0.0
  0
VERTEX
  5
7D
330
78
100
AcDbEntity
  8
0
 62
     7
370
     0
390
1D
100
AcDbVertex
100
AcDb2dVertex
 10
568.55957
 20
435.818542
 30
0.0
  0
SEQEND
  5
7E
330
78
100
AcDbEntity
  8
0
370
     0
390
1D
  0
POLYLINE
  5
7F
330
A
100
AcDbEntity
  8
0
 62
     7
370
    13
390
1D
100
AcDb2dPolyline
 66
     1
 10
0.0
 20
0.0
 30
0.0
  0
VERTEX
  5
80
330
7F
100
AcDbEntity
  8
0
 62
     7
370
     0
390
1D
100
AcDbVertex
100
AcDb2dVertex
 10
569.772888
 20
435.351868
 30
0.0
  0
VERTEX
  5
81
330
7F
100
AcDbEntity
  8
0
 62
     7
370
     0
390
1D
100
AcDbVertex
100
AcDb2dVertex
 10
570.239563
 20
434.885193
 30
0.0
  0
VERTEX
  5
82
330
7F
100
AcDbEntity
  8
0
 62
     7
370
     0
390
1D
100
AcDbVertex
100
AcDb2dVertex
 10
571.172852
 20
434.885193
 30
0.0
  0
VERTEX
  5
83
330
7F
100
AcDbEntity
  8
0
 62
     7
370
     0
390
1D
100
AcDbVertex
100
AcDb2dVertex
 10
571.639526
 20
435.351868
 30
0.0
  0
VERTEX
  5
84
330
7F
100
AcDbEntity
  8
0
 62
     7
370
     0
390
1D
100
AcDbVertex
100
AcDb2dVertex
 10
571.639526
 20
436.285217
 30
0.0
  0
VERTEX
  5
85
330
7F
100
AcDbEntity
  8
0
 62
     7
370
     0
390
1D
100
AcDbVertex
100
AcDb2dVertex
 10
571.172852
 20
435.818542
 30
0.0
  0
VERTEX
  5
86
330
7F
100
AcDbEntity
  8
0
 62
     7
370
     0
390
1D
100
AcDbVertex
100
AcDb2dVertex
 10
570.706238
 20
435.818542
 30
0.0
  0
VERTEX
  5
87
330
7F
100
AcDbEntity
  8
0
 62
     7
370
     0
390
1D
100
AcDbVertex
100
AcDb2dVertex
 10
569.772888
 20
436.751892
 30
0.0
  0
VERTEX
  5
88
330
7F
100
AcDbEntity
  8
0
 62
     7
370
     0
390
1D
100
AcDbVertex
100
AcDb2dVertex
 10
569.772888
 20
437.451904
 30
0.0
  0
VERTEX
  5
89
330
7F
100
AcDbEntity
  8
0
 62
     7
370
     0
390
1D
100
AcDbVertex
100
AcDb2dVertex
 10
570.239563
 20
437.918518
 30
0.0
  0
VERTEX
  5
8A
330
7F
100
AcDbEntity
  8
0
 62
     7
370
     0
390
1D
100
AcDbVertex
100
AcDb2dVertex
 10
571.172852
 20
437.918518
 30
0.0
  0
VERTEX
  5
8B
330
7F
100
AcDbEntity
  8
0
 62
     7
370
     0
390
1D
100
AcDbVertex
100
AcDb2dVertex
 10
571.639526
 20
437.451904
 30
0.0
  0
VERTEX
  5
8C
330
7F
100
AcDbEntity
  8
0
 62
     7
370
     0
390
1D
100
AcDbVertex
100
AcDb2dVertex
 10
571.639526
 20
436.285217
 30
0.0
  0
SEQEND
  5
8D
330
7F
100
AcDbEntity
  8
0
370
     0
390
1D
  0
LINE
  5
8E
330
A
100
AcDbEntity
  8
0
 62
     7
 48
0.016498
370
    13
390
1D
100
AcDbLine
 10
571.639526
 20
437.451904
 30
0.0
 11
572.106201
 21
437.918518
 31
0.0
  0
POLYLINE
  5
8F
330
A
100
AcDbEntity
  8
0
 62
     7
370
    13
390
1D
100
AcDb2dPolyline
 66
     1
 10
0.0
 20
0.0
 30
0.0
  0
VERTEX
  5
90
330
8F
100
AcDbEntity
  8
0
 62
     7
370
     0
390
1D
100
AcDbVertex
100
AcDb2dVertex
 10
511.391724
 20
429.907257
 30
0.0
  0
VERTEX
  5
91
330
8F
100
AcDbEntity
  8
0
 62
     7
370
     0
390
1D
100
AcDbVertex
100
AcDb2dVertex
 10
511.391724
 20
431.400604
 30
0.0
  0
VERTEX
  5
92
330
8F
100
AcDbEntity
  8
0
 62
     7
370
     0
390
1D
100
AcDbVertex
100
AcDb2dVertex
 10
511.391724
 20
432.940582
 30
0.0
  0
VERTEX
  5
93
330
8F
100
AcDbEntity
  8
0
 62
     7
370
     0
390
1D
100
AcDbVertex
100
AcDb2dVertex
 10
512.791748
 20
432.940582
 30
0.0
  0
VERTEX
  5
94
330
8F
100
AcDbEntity
  8
0
 62
     7
370
     0
390
1D
100
AcDbVertex
100
AcDb2dVertex
 10
513.258423
 20
432.473969
 30
0.0
  0
VERTEX
  5
95
330
8F
100
AcDbEntity
  8
0
 62
     7
370
     0
390
1D
100
AcDbVertex
100
AcDb2dVertex
 10
513.258423
 20
431.307281
 30
0.0
  0
VERTEX
  5
96
330
8F
100
AcDbEntity
  8
0
 62
     7
370
     0
390
1D
100
AcDbVertex
100
AcDb2dVertex
 10
512.791748
 20
430.840607
 30
0.0
  0
VERTEX
  5
97
330
8F
100
AcDbEntity
  8
0
 62
     7
370
     0
390
1D
100
AcDbVertex
100
AcDb2dVertex
 10
511.858368
 20
430.840607
 30
0.0
  0
VERTEX
  5
98
330
8F
100
AcDbEntity
  8
0
 62
     7
370
     0
390
1D
100
AcDbVertex
100
AcDb2dVertex
 10
511.391724
 20
431.307281
 30
0.0
  0
SEQEND
  5
99
330
8F
100
AcDbEntity
  8
0
370
     0
390
1D
  0
POLYLINE
  5
9A
330
A
100
AcDbEntity
  8
0
 62
     7
370
    13
390
1D
100
AcDb2dPolyline
 66
     1
 10
0.0
 20
0.0
 30
0.0
  0
VERTEX
  5
9B
330
9A
100
AcDbEntity
  8
0
 62
     7
370
     0
390
1D
100
AcDbVertex
100
AcDb2dVertex
 10
514.47168
 20
430.840607
 30
0.0
  0
VERTEX
  5
9C
330
9A
100
AcDbEntity
  8
0
 62
     7
370
     0
390
1D
100
AcDbVertex
100
AcDb2dVertex
 10
514.47168
 20
432.473969
 30
0.0
  0
VERTEX
  5
9D
330
9A
100
AcDbEntity
  8
0
 62
     7
370
     0
390
1D
100
AcDbVertex
100
AcDb2dVertex
 10
514.47168
 20
434.107269
 30
0.0
  0
SEQEND
  5
9E
330
9A
100
AcDbEntity
  8
0
370
     0
390
1D
  0
POLYLINE
  5
9F
330
A
100
AcDbEntity
  8
0
 62
     7
370
    13
390
1D
100
AcDb2dPolyline
 66
     1
 10
0.0
 20
0.0
 30
0.0
  0
VERTEX
  5
A0
330
9F
100
AcDbEntity
  8
0
 62
     7
370
     0
390
1D
100
AcDbVertex
100
AcDb2dVertex
 10
514.47168
 20
432.473969
 30
0.0
  0
VERTEX
  5
A1
330
9F
100
AcDbEntity
  8
0
 62
     7
370
     0
390
1D
100
AcDbVertex
100
AcDb2dVertex
 10
514.938354
 20
432.940582
 30
0.0
  0
VERTEX
  5
A2
330
9F
100
AcDbEntity
  8
0
 62
     7
370
     0
390
1D
100
AcDbVertex
100
AcDb2dVertex
 10
515.871704
 20
432.940582
 30
0.0
  0
VERTEX
  5
A3
330
9F
100
AcDbEntity
  8
0
 62
     7
370
     0
390
1D
100
AcDbVertex
100
AcDb2dVertex
 10
516.338379
 20
432.473969
 30
0.0
  0
VERTEX
  5
A4
330
9F
100
AcDbEntity
  8
0
 62
     7
370
     0
390
1D
100
AcDbVertex
100
AcDb2dVertex
 10
516.338379
 20
430.840607
 30
0.0
  0
SEQEND
  5
A5
330
9F
100
AcDbEntity
  8
0
370
     0
390
1D
  0
LINE
  5
A6
330
A
100
AcDbEntity
  8
0
 62
     7
 48
0.052499
370
    13
390
1D
100
AcDbLine
 10
518.485046
 20
430.840607
 30
0.0
 11
518.485046
 21
432.940582
 31
0.0
  0
POLYLINE
  5
A7
330
A
100
AcDbEntity
  8
0
 62
     7
370
    13
390
1D
100
AcDb2dPolyline
 66
     1
 10
0.0
 20
0.0
 30
0.0
 70
     1
  0
VERTEX
  5
A8
330
A7
100
AcDbEntity
  8
0
 62
     7
370
     0
390
1D
100
AcDbVertex
100
AcDb2dVertex
 10
518.485046
 20
434.200592
 30
0.0
  0
VERTEX
  5
A9
330
A7
100
AcDbEntity
  8
0
 62
     7
370
     0
390
1D
100
AcDbVertex
100
AcDb2dVertex
 10
518.578369
 20
434.107269
 30
0.0
  0
VERTEX
  5
AA
330
A7
100
AcDbEntity
  8
0
 62
     7
370
     0
390
1D
100
AcDbVertex
100
AcDb2dVertex
 10
518.485046
 20
434.013947
 30
0.0
  0
VERTEX
  5
AB
330
A7
100
AcDbEntity
  8
0
 62
     7
370
     0
390
1D
100
AcDbVertex
100
AcDb2dVertex
 10
518.391724
 20
434.107269
 30
0.0
  0
SEQEND
  5
AC
330
A7
100
AcDbEntity
  8
0
370
     0
390
1D
  0
POLYLINE
  5
AD
330
A
100
AcDbEntity
  8
0
 62
     7
370
    13
390
1D
100
AcDb2dPolyline
 66
     1
 10
0.0
 20
0.0
 30
0.0
  0
VERTEX
  5
AE
330
AD
100
AcDbEntity
  8
0
 62
     7
370
     0
390
1D
100
AcDbVertex
100
AcDb2dVertex
 10
521.565063
 20
434.107269
 30
0.0
  0
VERTEX
  5
AF
330
AD
100
AcDbEntity
  8
0
 62
     7
370
     0
390
1D
100
AcDbVertex
100
AcDb2dVertex
 10
521.565063
 20
432.473969
 30
0.0
  0
VERTEX
  5
B0
330
AD
100
AcDbEntity
  8
0
 62
     7
370
     0
390
1D
100
AcDbVertex
100
AcDb2dVertex
 10
521.565063
 20
430.840607
 30
0.0
  0
VERTEX
  5
B1
330
AD
100
AcDbEntity
  8
0
 62
     7
370
     0
390
1D
100
AcDbVertex
100
AcDb2dVertex
 10
522.031738
 20
430.840607
 30
0.0
  0
SEQEND
  5
B2
330
AD
100
AcDbEntity
  8
0
370
     0
390
1D
  0
POLYLINE
  5
B3
330
A
100
AcDbEntity
  8
0
 62
     7
370
    13
390
1D
100
AcDb2dPolyline
 66
     1
 10
0.0
 20
0.0
 30
0.0
  0
VERTEX
  5
B4
330
B3
100
AcDbEntity
  8
0
 62
     7
370
     0
390
1D
100
AcDbVertex
100
AcDb2dVertex
 10
528.658386
 20
434.107269
 30
0.0
  0
VERTEX
  5
B5
330
B3
100
AcDbEntity
  8
0
 62
     7
370
     0
390
1D
100
AcDbVertex
100
AcDb2dVertex
 10
528.658386
 20
431.307281
 30
0.0
  0
VERTEX
  5
B6
330
B3
100
AcDbEntity
  8
0
 62
     7
370
     0
390
1D
100
AcDbVertex
100
AcDb2dVertex
 10
528.191711
 20
430.840607
 30
0.0
  0
VERTEX
  5
B7
330
B3
100
AcDbEntity
  8
0
 62
     7
370
     0
390
1D
100
AcDbVertex
100
AcDb2dVertex
 10
527.258423
 20
430.840607
 30
0.0
  0
VERTEX
  5
B8
330
B3
100
AcDbEntity
  8
0
 62
     7
370
     0
390
1D
100
AcDbVertex
100
AcDb2dVertex
 10
526.791748
 20
431.307281
 30
0.0
  0
VERTEX
  5
B9
330
B3
100
AcDbEntity
  8
0
 62
     7
370
     0
390
1D
100
AcDbVertex
100
AcDb2dVertex
 10
526.791748
 20
432.473969
 30
0.0
  0
VERTEX
  5
BA
330
B3
100
AcDbEntity
  8
0
 62
     7
370
     0
390
1D
100
AcDbVertex
100
AcDb2dVertex
 10
527.258423
 20
432.940582
 30
0.0
  0
VERTEX
  5
BB
330
B3
100
AcDbEntity
  8
0
 62
     7
370
     0
390
1D
100
AcDbVertex
100
AcDb2dVertex
 10
528.191711
 20
432.940582
 30
0.0
  0
VERTEX
  5
BC
330
B3
100
AcDbEntity
  8
0
 62
     7
370
     0
390
1D
100
AcDbVertex
100
AcDb2dVertex
 10
528.658386
 20
432.473969
 30
0.0
  0
SEQEND
  5
BD
330
B3
100
AcDbEntity
  8
0
370
     0
390
1D
  0
LINE
  5
BE
330
A
100
AcDbEntity
  8
0
 62
     7
 48
0.016499
370
    13
390
1D
100
AcDbLine
 10
528.658386
 20
431.307281
 30
0.0
 11
529.125061
 21
430.840607
 31
0.0
  0
POLYLINE
  5
BF
330
A
100
AcDbEntity
  8
0
 62
     7
370
    13
390
1D
100
AcDb2dPolyline
 66
     1
 10
0.0
 20
0.0
 30
0.0
  0
VERTEX
  5
C0
330
BF
100
AcDbEntity
  8
0
 62
     7
370
     0
390
1D
100
AcDbVertex
100
AcDb2dVertex
 10
531.738403
 20
430.840607
 30
0.0
  0
VERTEX
  5
C1
330
BF
100
AcDbEntity
  8
0
 62
     7
370
     0
390
1D
100
AcDbVertex
100
AcDb2dVertex
 10
530.338379
 20
430.840607
 30
0.0
  0
VERTEX
  5
C2
330
BF
100
AcDbEntity
  8
0
 62
     7
370
     0
390
1D
100
AcDbVertex
100
AcDb2dVertex
 10
529.871704
 20
431.307281
 30
0.0
  0
VERTEX
  5
C3
330
BF
100
AcDbEntity
  8
0
 62
     7
370
     0
390
1D
100
AcDbVertex
100
AcDb2dVertex
 10
529.871704
 20
432.473969
 30
0.0
  0
VERTEX
  5
C4
330
BF
100
AcDbEntity
  8
0
 62
     7
370
     0
390
1D
100
AcDbVertex
100
AcDb2dVertex
 10
530.338379
 20
432.940582
 30
0.0
  0
VERTEX
  5
C5
330
BF
100
AcDbEntity
  8
0
 62
     7
370
     0
390
1D
100
AcDbVertex
100
AcDb2dVertex
 10
531.271729
 20
432.940582
 30
0.0
  0
VERTEX
  5
C6
330
BF
100
AcDbEntity
  8
0
 62
     7
370
     0
390
1D
100
AcDbVertex
100
AcDb2dVertex
 10
531.738403
 20
432.473969
 30
0.0
  0
VERTEX
  5
C7
330
BF
100
AcDbEntity
  8
0
 62
     7
370
     0
390
1D
100
AcDbVertex
100
AcDb2dVertex
 10
531.738403
 20
432.007294
 30
0.0
  0
VERTEX
  5
C8
330
BF
100
AcDbEntity
  8
0
 62
     7
370
     0
390
1D
100
AcDbVertex
100
AcDb2dVertex
 10
531.505005
 20
431.773956
 30
0.0
  0
VERTEX
  5
C9
330
BF
100
AcDbEntity
  8
0
 62
     7
370
     0
390
1D
100
AcDbVertex
100
AcDb2dVertex
 10
529.871704
 20
431.773956
 30
0.0
  0
SEQEND
  5
CA
330
BF
100
AcDbEntity
  8
0
370
     0
390
1D
  0
POLYLINE
  5
CB
330
A
100
AcDbEntity
  8
0
 62
     7
370
    13
390
1D
100
AcDb2dPolyline
 66
     1
 10
0.0
 20
0.0
 30
0.0
  0
VERTEX
  5
CC
330
CB
100
AcDbEntity
  8
0
 62
     7
370
     0
390
1D
100
AcDbVertex
100
AcDb2dVertex
 10
532.718384
 20
432.940582
 30
0.0
  0
VERTEX
  5
CD
330
CB
100
AcDbEntity
  8
0
 62
     7
370
     0
390
1D
100
AcDbVertex
100
AcDb2dVertex
 10
533.185059
 20
432.473969
 30
0.0
  0
VERTEX
  5
CE
330
CB
100
AcDbEntity
  8
0
 62
     7
370
     0
390
1D
100
AcDbVertex
100
AcDb2dVertex
 10
533.651733
 20
432.940582
 30
0.0
  0
VERTEX
  5
CF
330
CB
100
AcDbEntity
  8
0
 62
     7
370
     0
390
1D
100
AcDbVertex
100
AcDb2dVertex
 10
534.818359
 20
432.940582
 30
0.0
  0
SEQEND
  5
D0
330
CB
100
AcDbEntity
  8
0
370
     0
390
1D
  0
LINE
  5
D1
330
A
100
AcDbEntity
  8
0
 62
     7
 48
0.040834
370
    13
390
1D
100
AcDbLine
 10
533.185059
 20
432.473969
 30
0.0
 11
533.185059
 21
430.840607
 31
0.0
  0
POLYLINE
  5
D2
330
A
100
AcDbEntity
  8
0
 62
     7
370
    13
390
1D
100
AcDb2dPolyline
 66
     1
 10
0.0
 20
0.0
 30
0.0
  0
VERTEX
  5
D3
330
D2
100
AcDbEntity
  8
0
 62
     7
370
     0
390
1D
100
AcDbVertex
100
AcDb2dVertex
 10
539.111694
 20
434.107269
 30
0.0
  0
VERTEX
  5
D4
330
D2
100
AcDbEntity
  8
0
 62
     7
370
     0
390
1D
100
AcDbVertex
100
AcDb2dVertex
 10
540.978394
 20
434.107269
 30
0.0
  0
VERTEX
  5
D5
330
D2
100
AcDbEntity
  8
0
 62
     7
370
     0
390
1D
100
AcDbVertex
100
AcDb2dVertex
 10
540.045044
 20
432.707245
 30
0.0
  0
VERTEX
  5
D6
330
D2
100
AcDbEntity
  8
0
 62
     7
370
     0
390
1D
100
AcDbVertex
100
AcDb2dVertex
 10
540.978394
 20
432.240631
 30
0.0
  0
VERTEX
  5
D7
330
D2
100
AcDbEntity
  8
0
 62
     7
370
     0
390
1D
100
AcDbVertex
100
AcDb2dVertex
 10
540.978394
 20
431.307281
 30
0.0
  0
VERTEX
  5
D8
330
D2
100
AcDbEntity
  8
0
 62
     7
370
     0
390
1D
100
AcDbVertex
100
AcDb2dVertex
 10
540.511719
 20
430.840607
 30
0.0
  0
VERTEX
  5
D9
330
D2
100
AcDbEntity
  8
0
 62
     7
370
     0
390
1D
100
AcDbVertex
100
AcDb2dVertex
 10
539.578369
 20
430.840607
 30
0.0
  0
VERTEX
  5
DA
330
D2
100
AcDbEntity
  8
0
 62
     7
370
     0
390
1D
100
AcDbVertex
100
AcDb2dVertex
 10
539.111694
 20
431.307281
 30
0.0
  0
SEQEND
  5
DB
330
D2
100
AcDbEntity
  8
0
370
     0
390
1D
  0
POLYLINE
  5
DC
330
A
100
AcDbEntity
  8
0
 62
     7
370
    13
390
1D
100
AcDb2dPolyline
 66
     1
 10
0.0
 20
0.0
 30
0.0
 70
     1
  0
VERTEX
  5
DD
330
DC
100
AcDbEntity
  8
0
 62
     7
370
     0
390
1D
100
AcDbVertex
100
AcDb2dVertex
 10
542.658386
 20
430.840607
 30
0.0
  0
VERTEX
  5
DE
330
DC
100
AcDbEntity
  8
0
 62
     7
370
     0
390
1D
100
AcDbVertex
100
AcDb2dVertex
 10
542.191711
 20
430.840607
 30
0.0
  0
VERTEX
  5
DF
330
DC
100
AcDbEntity
  8
0
 62
     7
370
     0
390
1D
100
AcDbVertex
100
AcDb2dVertex
 10
542.191711
 20
431.307281
 30
0.0
  0
VERTEX
  5
E0
330
DC
100
AcDbEntity
  8
0
 62
     7
370
     0
390
1D
100
AcDbVertex
100
AcDb2dVertex
 10
542.658386
 20
431.307281
 30
0.0
  0
SEQEND
  5
E1
330
DC
100
AcDbEntity
  8
0
370
     0
390
1D
  0
LINE
  5
E2
330
A
100
AcDbEntity
  8
0
 62
     7
 48
0.046667
370
    13
390
1D
100
AcDbLine
 10
548.351685
 20
432.707245
 30
0.0
 11
550.218384
 21
432.707245
 31
0.0
  0
POLYLINE
  5
E3
330
A
100
AcDbEntity
  8
0
 62
     7
370
    13
390
1D
100
AcDb2dPolyline
 66
     1
 10
0.0
 20
0.0
 30
0.0
  0
VERTEX
  5
E4
330
E3
100
AcDbEntity
  8
0
 62
     7
370
     0
390
1D
100
AcDbVertex
100
AcDb2dVertex
 10
556.378418
 20
430.840607
 30
0.0
  0
VERTEX
  5
E5
330
E3
100
AcDbEntity
  8
0
 62
     7
370
     0
390
1D
100
AcDbVertex
100
AcDb2dVertex
 10
554.978394
 20
430.840607
 30
0.0
  0
VERTEX
  5
E6
330
E3
100
AcDbEntity
  8
0
 62
     7
370
     0
390
1D
100
AcDbVertex
100
AcDb2dVertex
 10
554.511719
 20
431.307281
 30
0.0
  0
VERTEX
  5
E7
330
E3
100
AcDbEntity
  8
0
 62
     7
370
     0
390
1D
100
AcDbVertex
100
AcDb2dVertex
 10
554.511719
 20
432.473969
 30
0.0
  0
VERTEX
  5
E8
330
E3
100
AcDbEntity
  8
0
 62
     7
370
     0
390
1D
100
AcDbVertex
100
AcDb2dVertex
 10
554.978394
 20
432.940582
 30
0.0
  0
VERTEX
  5
E9
330
E3
100
AcDbEntity
  8
0
 62
     7
370
     0
390
1D
100
AcDbVertex
100
AcDb2dVertex
 10
555.911743
 20
432.940582
 30
0.0
  0
VERTEX
  5
EA
330
E3
100
AcDbEntity
  8
0
 62
     7
370
     0
390
1D
100
AcDbVertex
100
AcDb2dVertex
 10
556.378418
 20
432.473969
 30
0.0
  0
VERTEX
  5
EB
330
E3
100
AcDbEntity
  8
0
 62
     7
370
     0
390
1D
100
AcDbVertex
100
AcDb2dVertex
 10
556.378418
 20
432.007294
 30
0.0
  0
VERTEX
  5
EC
330
E3
100
AcDbEntity
  8
0
 62
     7
370
     0
390
1D
100
AcDbVertex
100
AcDb2dVertex
 10
556.14502
 20
431.773956
 30
0.0
  0
VERTEX
  5
ED
330
E3
100
AcDbEntity
  8
0
 62
     7
370
     0
390
1D
100
AcDbVertex
100
AcDb2dVertex
 10
554.511719
 20
431.773956
 30
0.0
  0
SEQEND
  5
EE
330
E3
100
AcDbEntity
  8
0
370
     0
390
1D
  0
POLYLINE
  5
EF
330
A
100
AcDbEntity
  8
0
 62
     7
370
    13
390
1D
100
AcDb2dPolyline
 66
     1
 10
0.0
 20
0.0
 30
0.0
  0
VERTEX
  5
F0
330
EF
100
AcDbEntity
  8
0
 62
     7
370
     0
390
1D
100
AcDbVertex
100
AcDb2dVertex
 10
558.525024
 20
434.107269
 30
0.0
  0
VERTEX
  5
F1
330
EF
100
AcDbEntity
  8
0
 62
     7
370
     0
390
1D
100
AcDbVertex
100
AcDb2dVertex
 10
558.525024
 20
432.473969
 30
0.0
  0
VERTEX
  5
F2
330
EF
100
AcDbEntity
  8
0
 62
     7
370
     0
390
1D
100
AcDbVertex
100
AcDb2dVertex
 10
558.525024
 20
430.840607
 30
0.0
  0
VERTEX
  5
F3
330
EF
100
AcDbEntity
  8
0
 62
     7
370
     0
390
1D
100
AcDbVertex
100
AcDb2dVertex
 10
558.991699
 20
430.840607
 30
0.0
  0
SEQEND
  5
F4
330
EF
100
AcDbEntity
  8
0
370
     0
390
1D
  0
POLYLINE
  5
F5
330
A
100
AcDbEntity
  8
0
 62
     7
370
    13
390
1D
100
AcDb2dPolyline
 66
     1
 10
0.0
 20
0.0
 30
0.0
  0
VERTEX
  5
F6
330
F5
100
AcDbEntity
  8
0
 62
     7
370
     0
390
1D
100
AcDbVertex
100
AcDb2dVertex
 10
562.538391
 20
430.840607
 30
0.0
  0
VERTEX
  5
F7
330
F5
100
AcDbEntity
  8
0
 62
     7
370
     0
390
1D
100
AcDbVertex
100
AcDb2dVertex
 10
561.138428
 20
430.840607
 30
0.0
  0
VERTEX
  5
F8
330
F5
100
AcDbEntity
  8
0
 62
     7
370
     0
390
1D
100
AcDbVertex
100
AcDb2dVertex
 10
560.671753
 20
431.307281
 30
0.0
  0
VERTEX
  5
F9
330
F5
100
AcDbEntity
  8
0
 62
     7
370
     0
390
1D
100
AcDbVertex
100
AcDb2dVertex
 10
560.671753
 20
432.473969
 30
0.0
  0
VERTEX
  5
FA
330
F5
100
AcDbEntity
  8
0
 62
     7
370
     0
390
1D
100
AcDbVertex
100
AcDb2dVertex
 10
561.138428
 20
432.940582
 30
0.0
  0
VERTEX
  5
FB
330
F5
100
AcDbEntity
  8
0
 62
     7
370
     0
390
1D
100
AcDbVertex
100
AcDb2dVertex
 10
562.071716
 20
432.940582
 30
0.0
  0
VERTEX
  5
FC
330
F5
100
AcDbEntity
  8
0
 62
     7
370
     0
390
1D
100
AcDbVertex
100
AcDb2dVertex
 10
562.538391
 20
432.473969
 30
0.0
  0
VERTEX
  5
FD
330
F5
100
AcDbEntity
  8
0
 62
     7
370
     0
390
1D
100
AcDbVertex
100
AcDb2dVertex
 10
562.538391
 20
432.007294
 30
0.0
  0
VERTEX
  5
FE
330
F5
100
AcDbEntity
  8
0
 62
     7
370
     0
390
1D
100
AcDbVertex
100
AcDb2dVertex
 10
562.305054
 20
431.773956
 30
0.0
  0
VERTEX
  5
FF
330
F5
100
AcDbEntity
  8
0
 62
     7
370
     0
390
1D
100
AcDbVertex
100
AcDb2dVertex
 10
560.671753
 20
431.773956
 30
0.0
  0
SEQEND
  5
100
330
F5
100
AcDbEntity
  8
0
370
     0
390
1D
  0
POLYLINE
  5
101
330
A
100
AcDbEntity
  8
0
 62
     7
370
    13
390
1D
100
AcDb2dPolyline
 66
     1
 10
0.0
 20
0.0
 30
0.0
  0
VERTEX
  5
102
330
101
100
AcDbEntity
  8
0
 62
     7
370
     0
390
1D
100
AcDbVertex
100
AcDb2dVertex
 10
565.618408
 20
431.307281
 30
0.0
  0
VERTEX
  5
103
330
101
100
AcDbEntity
  8
0
 62
     7
370
     0
390
1D
100
AcDbVertex
100
AcDb2dVertex
 10
565.151733
 20
430.840607
 30
0.0
  0
VERTEX
  5
104
330
101
100
AcDbEntity
  8
0
 62
     7
370
     0
390
1D
100
AcDbVertex
100
AcDb2dVertex
 10
564.218384
 20
430.840607
 30
0.0
  0
VERTEX
  5
105
330
101
100
AcDbEntity
  8
0
 62
     7
370
     0
390
1D
100
AcDbVertex
100
AcDb2dVertex
 10
563.751709
 20
431.307281
 30
0.0
  0
VERTEX
  5
106
330
101
100
AcDbEntity
  8
0
 62
     7
370
     0
390
1D
100
AcDbVertex
100
AcDb2dVertex
 10
563.751709
 20
432.473969
 30
0.0
  0
VERTEX
  5
107
330
101
100
AcDbEntity
  8
0
 62
     7
370
     0
390
1D
100
AcDbVertex
100
AcDb2dVertex
 10
564.218384
 20
432.940582
 30
0.0
  0
VERTEX
  5
108
330
101
100
AcDbEntity
  8
0
 62
     7
370
     0
390
1D
100
AcDbVertex
100
AcDb2dVertex
 10
565.151733
 20
432.940582
 30
0.0
  0
VERTEX
  5
109
330
101
100
AcDbEntity
  8
0
 62
     7
370
     0
390
1D
100
AcDbVertex
100
AcDb2dVertex
 10
565.618408
 20
432.473969
 30
0.0
  0
SEQEND
  5
10A
330
101
100
AcDbEntity
  8
0
370
     0
390
1D
  0
POLYLINE
  5
10B
330
A
100
AcDbEntity
  8
0
 62
     7
370
    13
390
1D
100
AcDb2dPolyline
 66
     1
 10
0.0
 20
0.0
 30
0.0
  0
VERTEX
  5
10C
330
10B
100
AcDbEntity
  8
0
 62
     7
370
     0
390
1D
100
AcDbVertex
100
AcDb2dVertex
 10
567.765076
 20
434.107269
 30
0.0
  0
VERTEX
  5
10D
330
10B
100
AcDbEntity
  8
0
 62
     7
370
     0
390
1D
100
AcDbVertex
100
AcDb2dVertex
 10
567.765076
 20
431.307281
 30
0.0
  0
VERTEX
  5
10E
330
10B
100
AcDbEntity
  8
0
 62
     7
370
     0
390
1D
100
AcDbVertex
100
AcDb2dVertex
 10
568.231689
 20
430.840607
 30
0.0
  0
VERTEX
  5
10F
330
10B
100
AcDbEntity
  8
0
 62
     7
370
     0
390
1D
100
AcDbVertex
100
AcDb2dVertex
 10
568.698364
 20
430.840607
 30
0.0
  0
SEQEND
  5
110
330
10B
100
AcDbEntity
  8
0
370
     0
390
1D
  0
LINE
  5
111
330
A
100
AcDbEntity
  8
0
 62
     7
 48
0.046666
370
    13
390
1D
100
AcDbLine
 10
566.831726
 20
432.940582
 30
0.0
 11
568.698364
 21
432.940582
 31
0.0
  0
POLYLINE
  5
112
330
A
100
AcDbEntity
  8
0
 62
     7
370
    13
390
1D
100
AcDb2dPolyline
 66
     1
 10
0.0
 20
0.0
 30
0.0
  0
VERTEX
  5
113
330
112
100
AcDbEntity
  8
0
 62
     7
370
     0
390
1D
100
AcDbVertex
100
AcDb2dVertex
 10
569.678406
 20
432.940582
 30
0.0
  0
VERTEX
  5
114
330
112
100
AcDbEntity
  8
0
 62
     7
370
     0
390
1D
100
AcDbVertex
100
AcDb2dVertex
 10
570.14502
 20
432.473969
 30
0.0
  0
VERTEX
  5
115
330
112
100
AcDbEntity
  8
0
 62
     7
370
     0
390
1D
100
AcDbVertex
100
AcDb2dVertex
 10
570.611694
 20
432.940582
 30
0.0
  0
VERTEX
  5
116
330
112
100
AcDbEntity
  8
0
 62
     7
370
     0
390
1D
100
AcDbVertex
100
AcDb2dVertex
 10
571.778381
 20
432.940582
 30
0.0
  0
SEQEND
  5
117
330
112
100
AcDbEntity
  8
0
370
     0
390
1D
  0
LINE
  5
118
330
A
100
AcDbEntity
  8
0
 62
     7
 48
0.040834
370
    13
390
1D
100
AcDbLine
 10
570.14502
 20
432.473969
 30
0.0
 11
570.14502
 21
430.840607
 31
0.0
  0
POLYLINE
  5
119
330
A
100
AcDbEntity
  8
0
 62
     7
370
    13
390
1D
100
AcDb2dPolyline
 66
     1
 10
0.0
 20
0.0
 30
0.0
 70
     1
  0
VERTEX
  5
11A
330
119
100
AcDbEntity
  8
0
 62
     7
370
     0
390
1D
100
AcDbVertex
100
AcDb2dVertex
 10
574.858398
 20
432.473969
 30
0.0
  0
VERTEX
  5
11B
330
119
100
AcDbEntity
  8
0
 62
     7
370
     0
390
1D
100
AcDbVertex
100
AcDb2dVertex
 10
574.858398
 20
431.307281
 30
0.0
  0
VERTEX
  5
11C
330
119
100
AcDbEntity
  8
0
 62
     7
370
     0
390
1D
100
AcDbVertex
100
AcDb2dVertex
 10
574.391724
 20
430.840607
 30
0.0
  0
VERTEX
  5
11D
330
119
100
AcDbEntity
  8
0
 62
     7
370
     0
390
1D
100
AcDbVertex
100
AcDb2dVertex
 10
573.458374
 20
430.840607
 30
0.0
  0
VERTEX
  5
11E
330
119
100
AcDbEntity
  8
0
 62
     7
370
     0
390
1D
100
AcDbVertex
100
AcDb2dVertex
 10
572.991699
 20
431.307281
 30
0.0
  0
VERTEX
  5
11F
330
119
100
AcDbEntity
  8
0
 62
     7
370
     0
390
1D
100
AcDbVertex
100
AcDb2dVertex
 10
572.991699
 20
432.473969
 30
0.0
  0
VERTEX
  5
120
330
119
100
AcDbEntity
  8
0
 62
     7
370
     0
390
1D
100
AcDbVertex
100
AcDb2dVertex
 10
573.458374
 20
432.940582
 30
0.0
  0
VERTEX
  5
121
330
119
100
AcDbEntity
  8
0
 62
     7
370
     0
390
1D
100
AcDbVertex
100
AcDb2dVertex
 10
574.391724
 20
432.940582
 30
0.0
  0
SEQEND
  5
122
330
119
100
AcDbEntity
  8
0
370
     0
390
1D
  0
POLYLINE
  5
123
330
A
100
AcDbEntity
  8
0
 62
     7
370
    13
390
1D
100
AcDb2dPolyline
 66
     1
 10
0.0
 20
0.0
 30
0.0
  0
VERTEX
  5
124
330
123
100
AcDbEntity
  8
0
 62
     7
370
     0
390
1D
100
AcDbVertex
100
AcDb2dVertex
 10
575.605103
 20
432.940582
 30
0.0
  0
VERTEX
  5
125
330
123
100
AcDbEntity
  8
0
 62
     7
370
     0
390
1D
100
AcDbVertex
100
AcDb2dVertex
 10
576.071716
 20
432.473969
 30
0.0
  0
VERTEX
  5
126
330
123
100
AcDbEntity
  8
0
 62
     7
370
     0
390
1D
100
AcDbVertex
100
AcDb2dVertex
 10
576.071716
 20
430.840607
 30
0.0
  0
SEQEND
  5
127
330
123
100
AcDbEntity
  8
0
370
     0
390
1D
  0
POLYLINE
  5
128
330
A
100
AcDbEntity
  8
0
 62
     7
370
    13
390
1D
100
AcDb2dPolyline
 66
     1
 10
0.0
 20
0.0
 30
0.0
  0
VERTEX
  5
129
330
128
100
AcDbEntity
  8
0
 62
     7
370
     0
390
1D
100
AcDbVertex
100
AcDb2dVertex
 10
576.071716
 20
432.473969
 30
0.0
  0
VERTEX
  5
12A
330
128
100
AcDbEntity
  8
0
 62
     7
370
     0
390
1D
100
AcDbVertex
100
AcDb2dVertex
 10
576.538391
 20
432.940582
 30
0.0
  0
VERTEX
  5
12B
330
128
100
AcDbEntity
  8
0
 62
     7
370
     0
390
1D
100
AcDbVertex
100
AcDb2dVertex
 10
577.471741
 20
432.940582
 30
0.0
  0
VERTEX
  5
12C
330
128
100
AcDbEntity
  8
0
 62
     7
370
     0
390
1D
100
AcDbVertex
100
AcDb2dVertex
 10
577.938416
 20
432.473969
 30
0.0
  0
VERTEX
  5
12D
330
128
100
AcDbEntity
  8
0
 62
     7
370
     0
390
1D
100
AcDbVertex
100
AcDb2dVertex
 10
577.938416
 20
430.840607
 30
0.0
  0
SEQEND
  5
12E
330
128
100
AcDbEntity
  8
0
370
     0
390
1D
  0
LINE
  5
12F
330
A
100
AcDbEntity
  8
0
 62
     7
 48
0.052499
370
    13
390
1D
100
AcDbLine
 10
580.085083
 20
430.840607
 30
0.0
 11
580.085083
 21
432.940582
 31
0.0
  0
POLYLINE
  5
130
330
A
100
AcDbEntity
  8
0
 62
     7
370
    13
390
1D
100
AcDb2dPolyline
 66
     1
 10
0.0
 20
0.0
 30
0.0
 70
     1
  0
VERTEX
  5
131
330
130
100
AcDbEntity
  8
0
 62
     7
370
     0
390
1D
100
AcDbVertex
100
AcDb2dVertex
 10
580.085083
 20
434.200592
 30
0.0
  0
VERTEX
  5
132
330
130
100
AcDbEntity
  8
0
 62
     7
370
     0
390
1D
100
AcDbVertex
100
AcDb2dVertex
 10
580.178406
 20
434.107269
 30
0.0
  0
VERTEX
  5
133
330
130
100
AcDbEntity
  8
0
 62
     7
370
     0
390
1D
100
AcDbVertex
100
AcDb2dVertex
 10
580.085083
 20
434.013947
 30
0.0
  0
VERTEX
  5
134
330
130
100
AcDbEntity
  8
0
 62
     7
370
     0
390
1D
100
AcDbVertex
100
AcDb2dVertex
 10
579.991699
 20
434.107269
 30
0.0
  0
SEQEND
  5
135
330
130
100
AcDbEntity
  8
0
370
     0
390
1D
  0
POLYLINE
  5
136
330
A
100
AcDbEntity
  8
0
 62
     7
370
    13
390
1D
100
AcDb2dPolyline
 66
     1
 10
0.0
 20
0.0
 30
0.0
  0
VERTEX
  5
137
330
136
100
AcDbEntity
  8
0
 62
     7
370
     0
390
1D
100
AcDbVertex
100
AcDb2dVertex
 10
584.098389
 20
431.307281
 30
0.0
  0
VERTEX
  5
138
330
136
100
AcDbEntity
  8
0
 62
     7
370
     0
390
1D
100
AcDbVertex
100
AcDb2dVertex
 10
583.631775
 20
430.840607
 30
0.0
  0
VERTEX
  5
139
330
136
100
AcDbEntity
  8
0
 62
     7
370
     0
390
1D
100
AcDbVertex
100
AcDb2dVertex
 10
582.698364
 20
430.840607
 30
0.0
  0
VERTEX
  5
13A
330
136
100
AcDbEntity
  8
0
 62
     7
370
     0
390
1D
100
AcDbVertex
100
AcDb2dVertex
 10
582.23175
 20
431.307281
 30
0.0
  0
VERTEX
  5
13B
330
136
100
AcDbEntity
  8
0
 62
     7
370
     0
390
1D
100
AcDbVertex
100
AcDb2dVertex
 10
582.23175
 20
432.473969
 30
0.0
  0
VERTEX
  5
13C
330
136
100
AcDbEntity
  8
0
 62
     7
370
     0
390
1D
100
AcDbVertex
100
AcDb2dVertex
 10
582.698364
 20
432.940582
 30
0.0
  0
VERTEX
  5
13D
330
136
100
AcDbEntity
  8
0
 62
     7
370
     0
390
1D
100
AcDbVertex
100
AcDb2dVertex
 10
583.631775
 20
432.940582
 30
0.0
  0
VERTEX
  5
13E
330
136
100
AcDbEntity
  8
0
 62
     7
370
     0
390
1D
100
AcDbVertex
100
AcDb2dVertex
 10
584.098389
 20
432.473969
 30
0.0
  0
SEQEND
  5
13F
330
136
100
AcDbEntity
  8
0
370
     0
390
1D
  0
POLYLINE
  5
140
330
A
100
AcDbEntity
  8
0
 62
     7
370
    13
390
1D
100
AcDb2dPolyline
 66
     1
 10
0.0
 20
0.0
 30
0.0
  0
VERTEX
  5
141
330
140
100
AcDbEntity
  8
0
 62
     7
370
     0
390
1D
100
AcDbVertex
100
AcDb2dVertex
 10
587.178406
 20
432.940582
 30
0.0
  0
VERTEX
  5
142
330
140
100
AcDbEntity
  8
0
 62
     7
370
     0
390
1D
100
AcDbVertex
100
AcDb2dVertex
 10
585.778442
 20
432.940582
 30
0.0
  0
VERTEX
  5
143
330
140
100
AcDbEntity
  8
0
 62
     7
370
     0
390
1D
100
AcDbVertex
100
AcDb2dVertex
 10
585.311768
 20
432.473969
 30
0.0
  0
VERTEX
  5
144
330
140
100
AcDbEntity
  8
0
 62
     7
370
     0
390
1D
100
AcDbVertex
100
AcDb2dVertex
 10
585.778442
 20
432.007294
 30
0.0
  0
VERTEX
  5
145
330
140
100
AcDbEntity
  8
0
 62
     7
370
     0
390
1D
100
AcDbVertex
100
AcDb2dVertex
 10
586.945068
 20
432.007294
 30
0.0
  0
VERTEX
  5
146
330
140
100
AcDbEntity
  8
0
 62
     7
370
     0
390
1D
100
AcDbVertex
100
AcDb2dVertex
 10
587.178406
 20
431.773956
 30
0.0
  0
VERTEX
  5
147
330
140
100
AcDbEntity
  8
0
 62
     7
370
     0
390
1D
100
AcDbVertex
100
AcDb2dVertex
 10
587.178406
 20
431.307281
 30
0.0
  0
VERTEX
  5
148
330
140
100
AcDbEntity
  8
0
 62
     7
370
     0
390
1D
100
AcDbVertex
100
AcDb2dVertex
 10
586.711731
 20
430.840607
 30
0.0
  0
VERTEX
  5
149
330
140
100
AcDbEntity
  8
0
 62
     7
370
     0
390
1D
100
AcDbVertex
100
AcDb2dVertex
 10
585.311768
 20
430.840607
 30
0.0
  0
SEQEND
  5
14A
330
140
100
AcDbEntity
  8
0
370
     0
390
1D
  0
LINE
  5
14B
330
A
100
AcDbEntity
  8
0
 62
     7
 48
0.4875
370
    35
390
1D
100
AcDbLine
 10
707.5
 20
491.0
 30
0.0
 11
707.5
 21
471.5
 31
0.0
  0
LINE
  5
14C
330
A
100
AcDbEntity
  8
0
 62
     7
370
    35
390
1D
100
AcDbLine
 10
685.0
 20
491.0
 30
0.0
 11
707.5
 21
491.0
 31
0.0
  0
LINE
  5
14D
330
A
100
AcDbEntity
  8
0
 62
     7
370
    35
390
1D
100
AcDbLine
 10
444.5
 20
518.0
 30
0.0
 11
744.5
 21
518.0
 31
0.0
  0
LINE
  5
14E
330
A
100
AcDbEntity
  8
0
 62
     7
370
    35
390
1D
100
AcDbLine
 10
444.5
 20
323.0
 30
0.0
 11
444.5
 21
518.0
 31
0.0
  0
LINE
  5
14F
330
A
100
AcDbEntity
  8
0
 62
     7
370
    35
390
1D
100
AcDbLine
 10
744.5
 20
323.0
 30
0.0
 11
444.5
 21
323.0
 31
0.0
  0
LINE
  5
150
330
A
100
AcDbEntity
  8
0
 62
     7
370
    35
390
1D
100
AcDbLine
 10
744.5
 20
518.0
 30
0.0
 11
744.5
 21
323.0
 31
0.0
  0
LINE
  5
151
330
A
100
AcDbEntity
  8
0
 62
     7
370
    35
390
1D
100
AcDbLine
 10
707.5
 20
471.5
 30
0.0
 11
685.0
 21
471.5
 31
0.0
  0
LINE
  5
152
330
A
100
AcDbEntity
  8
0
 62
     7
 48
0.4875
370
    35
390
1D
100
AcDbLine
 10
685.0
 20
471.5
 30
0.0
 11
685.0
 21
491.0
 31
0.0
  0
CIRCLE
  5
153
330
A
100
AcDbEntity
  8
0
 62
     7
370
    35
390
1D
100
AcDbCircle
 10
696.25
 20
445.0
 30
0.0
 40
2.5
  0
CIRCLE
  5
154
330
A
100
AcDbEntity
  8
0
 62
     7
370
    35
390
1D
100
AcDbCircle
 10
647.5
 20
481.25
 30
0.0
 40
8.0
  0
CIRCLE
  5
155
330
A
100
AcDbEntity
  8
0
 62
     7
370
    35
390
1D
100
AcDbCircle
 10
647.5
 20
445.0
 30
0.0
 40
6.0
  0
CIRCLE
  5
156
330
A
100
AcDbEntity
  8
0
 62
     7
370
    35
390
1D
100
AcDbCircle
 10
676.5
 20
481.25
 30
0.0
 40
0.5
  0
CIRCLE
  5
157
330
A
100
AcDbEntity
  8
0
 62
     7
370
    35
390
1D
100
AcDbCircle
 10
716.0
 20
481.25
 30
0.0
 40
0.5
  0
CIRCLE
  5
158
330
A
100
AcDbEntity
  8
0
 62
     7
370
    35
390
1D
100
AcDbCircle
 10
507.843933
 20
348.223633
 30
0.0
 40
0.5
  0
CIRCLE
  5
159
330
A
100
AcDbEntity
  8
0
 62
     7
370
    35
390
1D
100
AcDbCircle
 10
515.156067
 20
407.776398
 30
0.0
 40
0.5
  0
CIRCLE
  5
15A
330
A
100
AcDbEntity
  8
0
 62
     7
370
    35
390
1D
100
AcDbCircle
 10
590.843933
 20
348.223633
 30
0.0
 40
0.5
  0
CIRCLE
  5
15B
330
A
100
AcDbEntity
  8
0
 62
     7
370
    35
390
1D
100
AcDbCircle
 10
598.156067
 20
407.776398
 30
0.0
 40
0.5
  0
CIRCLE
  5
15C
330
A
100
AcDbEntity
  8
0
 62
     7
370
    35
390
1D
100
AcDbCircle
 10
673.843933
 20
348.223633
 30
0.0
 40
0.5
  0
CIRCLE
  5
15D
330
A
100
AcDbEntity
  8
0
 62
     7
370
    35
390
1D
100
AcDbCircle
 10
681.156067
 20
407.776398
 30
0.0
 40
0.5
  0
CIRCLE
  5
15E
330
A
100
AcDbEntity
  8
0
 62
     7
370
    35
390
1D
100
AcDbCircle
 10
460.5
 20
375.5
 30
0.0
 40
2.5
  0
CIRCLE
  5
15F
330
A
100
AcDbEntity
  8
0
 62
     7
370
    35
390
1D
100
AcDbCircle
 10
460.5
 20
465.5
 30
0.0
 40
2.5
  0
CIRCLE
  5
160
330
A
100
AcDbEntity
  8
0
 62
     7
370
    35
390
1D
100
AcDbCircle
 10
728.5
 20
375.5
 30
0.0
 40
2.5
  0
CIRCLE
  5
161
330
A
100
AcDbEntity
  8
0
 62
     7
370
    35
390
1D
100
AcDbCircle
 10
728.5
 20
465.5
 30
0.0
 40
2.5
  0
CIRCLE
  5
162
330
A
100
AcDbEntity
  8
0
 62
     7
370
    35
390
1D
100
AcDbCircle
 10
579.25
 20
452.0
 30
0.0
 40
2.05
  0
CIRCLE
  5
163
330
A
100
AcDbEntity
  8
0
 62
     7
370
    35
390
1D
100
AcDbCircle
 10
609.75
 20
484.0
 30
0.0
 40
2.05
  0
CIRCLE
  5
164
330
A
100
AcDbEntity
  8
0
 62
     7
370
    35
390
1D
100
AcDbCircle
 10
609.75
 20
452.0
 30
0.0
 40
2.05
  0
CIRCLE
  5
165
330
A
100
AcDbEntity
  8
0
 62
     7
370
    35
390
1D
100
AcDbCircle
 10
579.25
 20
484.0
 30
0.0
 40
2.05
  0
CIRCLE
  5
166
330
A
100
AcDbEntity
  8
0
 62
     7
370
    35
390
1D
100
AcDbCircle
 10
594.5
 20
468.0
 30
0.0
 40
19.0
  0
CIRCLE
  5
167
330
A
100
AcDbEntity
  8
0
 62
     7
370
    35
390
1D
100
AcDbCircle
 10
511.5
 20
468.0
 30
0.0
 40
19.0
  0
CIRCLE
  5
168
330
A
100
AcDbEntity
  8
0
 62
     7
370
    35
390
1D
100
AcDbCircle
 10
677.5
 20
378.0
 30
0.0
 40
27.0
  0
CIRCLE
  5
169
330
A
100
AcDbEntity
  8
0
 62
     7
370
    35
390
1D
100
AcDbCircle
 10
594.5
 20
378.0
 30
0.0
 40
27.0
  0
CIRCLE
  5
16A
330
A
100
AcDbEntity
  8
0
 62
     7
370
    35
390
1D
100
AcDbCircle
 10
511.5
 20
378.0
 30
0.0
 40
27.0
  0
VIEWPORT
  5
16B
330
B
100
AcDbEntity
 67
     1
  8
0
 62
     0
 48
0.0
370
     0
390
1D
100
AcDbViewport
 10
0.0
 20
0.0
 30
0.0
 40
1000.0
 41
1000.0
 68
     1
 69
     1
 12
0.0
 22
0.0
 13
0.0
 23
0.0
 14
1.0
 24
1.0
 15
1.0
 25
1.0
 16
0.0
 26
0.0
 36
1.0
 17
0.0
 27
0.0
 37
0.0
 42
50.0
 43
0.0
 44
0.0
 45
1000.0
 50
0.0
 51
0.0
 72
   100
 90
        0
  1

281
     0
 71
     0
 74
     1
110
0.0
120
0.0
130
0.0
111
1.0
121
0.0
131
0.0
112
0.0
122
1.0
132
0.0
 79
     0
146
0.0
170
     0
 61
     5
292
     1
282
     1
141
0.0
142
0.0
 63
   256
  0
ENDSEC
  0
SECTION
  2
OBJECTS
  0
DICTIONARY
  5
19
330
0
100
AcDbDictionary
281
     1
  3
ACAD_GROUP
350
1A
  3
ACAD_LAYOUT
350
1E
  3
ACAD_MLEADERSTYLE
350
192
  3
ACAD_MLINESTYLE
350
1B
  3
ACAD_PLOTSETTINGS
350
22
  3
ACAD_PLOTSTYLENAME
350
1F
  3
ACAD_SCALELIST
350
16C
  3
ACAD_TABLESTYLE
350
191
  3
ACAD_WIPEOUT_VARS
350
23
  3
AcDbVariableDictionary
350
18E
  0
DICTIONARY
  5
1A
102
{ACAD_REACTORS
330
19
102
}
330
19
100
AcDbDictionary
281
     1
  0
DICTIONARY
  5
1E
102
{ACAD_REACTORS
330
19
102
}
330
19
100
AcDbDictionary
281
     1
  3
Layout1
350
21
  3
Model
350
20
  0
DICTIONARY
  5
192
102
{ACAD_REACTORS
330
19
102
}
330
19
100
AcDbDictionary
281
     1
  0
DICTIONARY
  5
1B
102
{ACAD_REACTORS
330
19
102
}
330
19
100
AcDbDictionary
281
     1
  3
Standard
350
1C
  0
DICTIONARY
  5
22
102
{ACAD_REACTORS
330
19
102
}
330
19
100
AcDbDictionary
281
     1
  0
ACDBDICTIONARYWDFLT
  5
1F
102
{ACAD_REACTORS
330
19
102
}
330
19
100
AcDbDictionary
281
     1
  3
Normal
350
1D
100
AcDbDictionaryWithDefault
340
1D
  0
DICTIONARY
  5
16C
102
{ACAD_REACTORS
330
19
102
}
330
19
100
AcDbDictionary
281
     1
  3
A0
350
16D
  3
A1
350
16E
  3
A2
350
16F
  3
A3
350
170
  3
A4
350
171
  3
A5
350
172
  3
A6
350
173
  3
A7
350
174
  3
A8
350
175
  3
A9
350
176
  3
B0
350
177
  3
B1
350
178
  3
B2
350
179
  3
B3
350
17A
  3
B4
350
17B
  3
B5
350
17C
  3
B6
350
17D
  3
B7
350
17E
  3
B8
350
17F
  3
B9
350
180
  3
C0
350
181
  3
C1
350
182
  3
C2
350
183
  3
C3
350
184
  3
C4
350
185
  3
C5
350
186
  3
C6
350
187
  3
C7
350
188
  3
C8
350
189
  3
C9
350
18A
  3
D0
350
18B
  3
D1
350
18C
  3
D2
350
18D
  0
DICTIONARY
  5
191
102
{ACAD_REACTORS
330
19
102
}
330
19
100
AcDbDictionary
281
     1
  0
WIPEOUTVARIABLES
  5
23
330
19
100
AcDbWipeoutVariables
 70
     1
  0
DICTIONARY
  5
18E
102
{ACAD_REACTORS
330
19
102
}
330
19
100
AcDbDictionary
281
     1
  3
CANNOSCALE
350
18F
  3
LIGHTINGUNITS
350
190
  0
LAYOUT
  5
21
102
{ACAD_REACTORS
330
1E
102
}
330
1E
100
AcDbPlotSettings
  1

  2

  4

  6

 40
0.0
 41
0.0
 42
0.0
 43
0.0
 44
0.0
 45
0.0
 46
0.0
 47
0.0
 48
0.0
 49
0.0
140
0.0
141
0.0
142
1.0
143
1.0
 70
     0
 72
     0
 73
     0
 74
     0
  7

 75
     0
 76
     0
 77
     2
 78
   300
147
1.0
148
0.0
149
0.0
100
AcDbLayout
  1
Layout1
 70
     0
 71
     0
 10
0.0
 20
0.0
 11
0.0
 21
0.0
 12
0.0
 22
0.0
 32
0.0
 14
0.0
 24
0.0
 34
0.0
 15
0.0
 25
0.0
 35
0.0
146
0.0
 13
0.0
 23
0.0
 33
0.0
 16
0.0
 26
0.0
 36
0.0
 17
0.0
 27
0.0
 37
0.0
 76
     0
330
B
331
16B
  0
LAYOUT
  5
20
102
{ACAD_REACTORS
330
1E
102
}
330
1E
100
AcDbPlotSettings
  1

  2

  4

  6

 40
0.0
 41
0.0
 42
0.0
 43
0.0
 44
0.0
 45
0.0
 46
0.0
 47
0.0
 48
0.0
 49
0.0
140
0.0
141
0.0
142
1.0
143
1.0
 70
  1024
 72
     0
 73
     0
 74
     0
  7

 75
     0
 76
     0
 77
     2
 78
   300
147
1.0
148
0.0
149
0.0
100
AcDbLayout
  1
Model
 70
     0
 71
     1
 10
0.0
 20
0.0
 11
0.0
 21
0.0
 12
0.0
 22
0.0
 32
0.0
 14
0.0
 24
0.0
 34
0.0
 15
0.0
 25
0.0
 35
0.0
146
0.0
 13
0.0
 23
0.0
 33
0.0
 16
0.0
 26
0.0
 36
0.0
 17
0.0
 27
0.0
 37
0.0
 76
     0
330
A
331
15
  0
MLINESTYLE
  5
1C
102
{ACAD_REACTORS
330
1B
102
}
330
1B
100
AcDbMlineStyle
  2
Standard
 70
     0
  3

 62
     0
 51
90.0
 52
90.0
 71
     2
 49
0.5
 62
   256
  6
BYLAYER
 49
-0.5
 62
   256
  6
BYLAYER
  0
ACDBPLACEHOLDER
  5
1D
102
{ACAD_REACTORS
330
1F
102
}
330
1F
  0
SCALE
  5
16D
102
{ACAD_REACTORS
330
16C
102
}
330
16C
100
AcDbScale
 70
     0
300
1:1
140
1.0
141
1.0
290
     1
  0
SCALE
  5
16E
102
{ACAD_REACTORS
330
16C
102
}
330
16C
100
AcDbScale
 70
     0
300
1:2
140
1.0
141
2.0
290
     0
  0
SCALE
  5
16F
102
{ACAD_REACTORS
330
16C
102
}
330
16C
100
AcDbScale
 70
     0
300
1:4
140
1.0
141
4.0
290
     0
  0
SCALE
  5
170
102
{ACAD_REACTORS
330
16C
102
}
330
16C
100
AcDbScale
 70
     0
300
1:5
140
1.0
141
5.0
290
     0
  0
SCALE
  5
171
102
{ACAD_REACTORS
330
16C
102
}
330
16C
100
AcDbScale
 70
     0
300
1:8
140
1.0
141
8.0
290
     0
  0
SCALE
  5
172
102
{ACAD_REACTORS
330
16C
102
}
330
16C
100
AcDbScale
 70
     0
300
1:10
140
1.0
141
10.0
290
     0
  0
SCALE
  5
173
102
{ACAD_REACTORS
330
16C
102
}
330
16C
100
AcDbScale
 70
     0
300
1:16
140
1.0
141
16.0
290
     0
  0
SCALE
  5
174
102
{ACAD_REACTORS
330
16C
102
}
330
16C
100
AcDbScale
 70
     0
300
1:20
140
1.0
141
20.0
290
     0
  0
SCALE
  5
175
102
{ACAD_REACTORS
330
16C
102
}
330
16C
100
AcDbScale
 70
     0
300
1:30
140
1.0
141
30.0
290
     0
  0
SCALE
  5
176
102
{ACAD_REACTORS
330
16C
102
}
330
16C
100
AcDbScale
 70
     0
300
1:40
140
1.0
141
40.0
290
     0
  0
SCALE
  5
177
102
{ACAD_REACTORS
330
16C
102
}
330
16C
100
AcDbScale
 70
     0
300
1:50
140
1.0
141
50.0
290
     0
  0
SCALE
  5
178
102
{ACAD_REACTORS
330
16C
102
}
330
16C
100
AcDbScale
 70
     0
300
1:100
140
1.0
141
100.0
290
     0
  0
SCALE
  5
179
102
{ACAD_REACTORS
330
16C
102
}
330
16C
100
AcDbScale
 70
     0
300
2:1
140
2.0
141
1.0
290
     0
  0
SCALE
  5
17A
102
{ACAD_REACTORS
330
16C
102
}
330
16C
100
AcDbScale
 70
     0
300
4:1
140
4.0
141
1.0
290
     0
  0
SCALE
  5
17B
102
{ACAD_REACTORS
330
16C
102
}
330
16C
100
AcDbScale
 70
     0
300
8:1
140
8.0
141
1.0
290
     0
  0
SCALE
  5
17C
102
{ACAD_REACTORS
330
16C
102
}
330
16C
100
AcDbScale
 70
     0
300
10:1
140
10.0
141
1.0
290
     0
  0
SCALE
  5
17D
102
{ACAD_REACTORS
330
16C
102
}
330
16C
100
AcDbScale
 70
     0
300
100:1
140
100.0
141
1.0
290
     0
  0
SCALE
  5
17E
102
{ACAD_REACTORS
330
16C
102
}
330
16C
100
AcDbScale
 70
     0
300
1/128" = 1'-0"
140
0.0078125
141
12.0
290
     0
  0
SCALE
  5
17F
102
{ACAD_REACTORS
330
16C
102
}
330
16C
100
AcDbScale
 70
     0
300
1/64" = 1'-0"
140
0.015625
141
12.0
290
     0
  0
SCALE
  5
180
102
{ACAD_REACTORS
330
16C
102
}
330
16C
100
AcDbScale
 70
     0
300
1/32" = 1'-0"
140
0.03125
141
12.0
290
     0
  0
SCALE
  5
181
102
{ACAD_REACTORS
330
16C
102
}
330
16C
100
AcDbScale
 70
     0
300
1/16" = 1'-0"
140
0.0625
141
12.0
290
     0
  0
SCALE
  5
182
102
{ACAD_REACTORS
330
16C
102
}
330
16C
100
AcDbScale
 70
     0
300
3/32" = 1'-0"
140
0.09375
141
12.0
290
     0
  0
SCALE
  5
183
102
{ACAD_REACTORS
330
16C
102
}
330
16C
100
AcDbScale
 70
     0
300
1/8" = 1'-0"
140
0.125
141
12.0
290
     0
  0
SCALE
  5
184
102
{ACAD_REACTORS
330
16C
102
}
330
16C
100
AcDbScale
 70
     0
300
3/16" = 1'-0"
140
0.1875
141
12.0
290
     0
  0
SCALE
  5
185
102
{ACAD_REACTORS
330
16C
102
}
330
16C
100
AcDbScale
 70
     0
300
1/4" = 1'-0"
140
0.25
141
12.0
290
     0
  0
SCALE
  5
186
102
{ACAD_REACTORS
330
16C
102
}
330
16C
100
AcDbScale
 70
     0
300
3/8" = 1'-0"
140
0.375
141
12.0
290
     0
  0
SCALE
  5
187
102
{ACAD_REACTORS
330
16C
102
}
330
16C
100
AcDbScale
 70
     0
300
1/2" = 1'-0"
140
0.5
141
12.0
290
     0
  0
SCALE
  5
188
102
{ACAD_REACTORS
330
16C
102
}
330
16C
100
AcDbScale
 70
     0
300
3/4" = 1'-0"
140
0.75
141
12.0
290
     0
  0
SCALE
  5
189
102
{ACAD_REACTORS
330
16C
102
}
330
16C
100
AcDbScale
 70
     0
300
1" = 1'-0"
140
1.0
141
12.0
290
     0
  0
SCALE
  5
18A
102
{ACAD_REACTORS
330
16C
102
}
330
16C
100
AcDbScale
 70
     0
300
1-1/2" = 1'-0"
140
1.5
141
12.0
290
     0
  0
SCALE
  5
18B
102
{ACAD_REACTORS
330
16C
102
}
330
16C
100
AcDbScale
 70
     0
300
3" = 1'-0"
140
3.0
141
12.0
290
     0
  0
SCALE
  5
18C
102
{ACAD_REACTORS
330
16C
102
}
330
16C
100
AcDbScale
 70
     0
300
6" = 1'-0"
140
6.0
141
12.0
290
     0
  0
SCALE
  5
18D
102
{ACAD_REACTORS
330
16C
102
}
330
16C
100
AcDbScale
 70
     0
300
1'-0" = 1'-0"
140
12.0
141
12.0
290
     0
  0
DICTIONARYVAR
  5
18F
102
{ACAD_REACTORS
330
18E
102
}
330
18E
100
DictionaryVariables
280
     0
  1
1:1
  0
DICTIONARYVAR
  5
190
102
{ACAD_REACTORS
330
18E
102
}
330
18E
100
DictionaryVariables
280
     0
  1
0
  0
ENDSEC
  0
EOF
